<?xml version='1.0' encoding='UTF-8' standalone='no'?>
<svg xmlns:svg="http://www.w3.org/2000/svg" xmlns:inkscape="http://www.inkscape.org/namespaces/inkscape" xmlns:sodipodi="http://sodipodi.sourceforge.net/DTD/sodipodi-0.dtd" xmlns="http://www.w3.org/2000/svg" version="1.2" xmlns:xlink="http://www.w3.org/1999/xlink" baseProfile="tiny" xmlns:cc="http://creativecommons.org/ns#" xmlns:rdf="http://www.w3.org/1999/02/22-rdf-syntax-ns#" height="297mm" width="210mm" xmlns:freecad="http://www.freecadweb.org/wiki/index.php?title=Svg_Namespace" xmlns:dc="http://purl.org/dc/elements/1.1/" viewBox="0 0 2100 2970">
 <title>Цилиндр рабочий</title>
 <desc>Drawing page: Page exported from FreeCAD document: cylinder_drawing</desc>
 <defs/>
 <g inkscape:label="TechDraw" inkscape:groupmode="layer" id="Page">
  <g style="stroke: none;" id="GOST1.svg" transform="scale(10.000000, 10.000000)">
   <title>Шаблон основной надписи А4 ГОСТ 2.104-2006</title>
   <rect height="297" fill="white" width="210" y="0" x="0"/>
   <g font-family="GOST type A">
    <g stroke-linecap="round" stroke="black" fill="none" stroke-linejoin="round" stroke-width="0.5">
     <rect height="287" width="185" y="5" x="20"/>
     <path d="m 90 5 v 14 h -70"/>
    </g>
    <text freecad:editable="Обозначение" text-anchor="middle" font-size="13.33" y="-7.5" transform="scale(-1)" x="-55">
     <tspan xml:space="preserve">000.000.000</tspan>
    </text>
    <g transform="translate(210, 297)">
     <g stroke-linecap="round" stroke="black" fill="none" stroke-linejoin="round">
      <g stroke-width="0.5">
       <path d="m -125 -20 h 120"/>
       <path d="m -125 -45 h 120"/>
       <path d="m -190 -60 h 185"/>
       <path d="m -55 -25 h 50"/>
       <path d="m -55 -40 h 50"/>
       <path d="m -55 -45 v 40"/>
       <path d="m -125 -60 v 55"/>
       <path d="m -135 -60 v 55"/>
       <path d="m -150 -60 v 55"/>
       <path d="m -173 -60 v 55"/>
       <path d="m -183 -60 v 25"/>
       <path d="m -190 -40 h 65"/>
       <path d="m -190 -35 h 65"/>
       <path d="m -23 -45 v 20"/>
       <path d="m -40 -45 v 20"/>
       <path d="m -35 -25 v 5"/>
      </g>
      <g stroke-width="0.25">
       <path d="m -190 -55 h 65"/>
       <path d="m -190 -50 h 65"/>
       <path d="m -190 -45 h 65"/>
       <path d="m -190 -30 h 65"/>
       <path d="m -190 -25 h 65"/>
       <path d="m -190 -20 h 65"/>
       <path d="m -190 -15 h 65"/>
       <path d="m -190 -10 h 65"/>
       <path d="m -45 -40 v 15"/>
       <path d="m -50 -40 v 15"/>
      </g>
     </g>
     <g>
      <g font-size="4">
       <g font-style="italic">
        <g text-anchor="middle">
         <text y="-36" x="-186.5">Изм.</text>
         <text y="-36" x="-178">Лист</text>
         <text y="-36" x="-161.5">№ докум.</text>
         <text y="-36" x="-142.5">Подп.</text>
         <text y="-36" x="-130">Дата</text>
         <text y="-41" x="-47.5">Литера</text>
         <text y="-41" x="-31.5">Масса</text>
         <text y="-41" x="-14">Масштаб</text>
        </g>
        <g text-anchor="middle">
         <text freecad:editable="Литера 1" y="-31" x="-52.5">
          <tspan xml:space="preserve"/>
         </text>
         <text freecad:editable="Литера 2" y="-31" x="-47.5">
          <tspan xml:space="preserve"/>
         </text>
         <text freecad:editable="Литера 3" y="-31" x="-42.5">
          <tspan xml:space="preserve"/>
         </text>
        </g>
        <text y="-31" x="-189">Разраб.</text>
        <text y="-26" x="-189">Пров.</text>
        <text y="-21" x="-189">Т.контр.</text>
        <text y="-11" x="-189">Н.контр.</text>
        <text y="-6" x="-189">Утв.</text>
        <text y="-21" x="-54">Лист</text>
        <text y="-21" x="-34">Листов</text>
       </g>
       <text freecad:editable="Лист" text-anchor="end" y="-21" x="-36">
        <tspan xml:space="preserve"/>
       </text>
       <text freecad:editable="Листов" text-anchor="end" y="-21" x="-6">
        <tspan xml:space="preserve">1</tspan>
       </text>
       <text freecad:editable="Разработал" y="-31" x="-172">
        <tspan xml:space="preserve">Болдин С. А.</tspan>
       </text>
       <text freecad:editable="Проверил" y="-26" x="-172">
        <tspan xml:space="preserve">Матяшов С. И.</tspan>
       </text>
       <text freecad:editable="Утвердил" y="-6" x="-172">
        <tspan xml:space="preserve">Болдин С. А.</tspan>
       </text>
       <text freecad:editable="Дата разработки" y="-31" x="-134">
        <tspan xml:space="preserve">01.04</tspan>
       </text>
       <text freecad:editable="Дата проверки" y="-26" x="-134">
        <tspan xml:space="preserve">01.04</tspan>
       </text>
       <text freecad:editable="Дата утверждения" y="-6" x="-134">
        <tspan xml:space="preserve">01.04</tspan>
       </text>
      </g>
      <g text-anchor="middle" font-size="6.66">
       <text freecad:editable="Наименование 1" y="-30" x="-90">
        <tspan xml:space="preserve">Цилиндр рабочий</tspan>
       </text>
       <text freecad:editable="Наименование 2" y="-32.5" x="-90">
        <tspan xml:space="preserve"/>
       </text>
       <text freecad:editable="Наименование 3" y="-27.5" x="-90">
        <tspan xml:space="preserve"/>
       </text>
       <text freecad:editable="Наименование 4" y="-35" x="-90">
        <tspan xml:space="preserve"/>
       </text>
       <text freecad:editable="Наименование 5" y="-25" x="-90">
        <tspan xml:space="preserve"/>
       </text>
       <text freecad:editable="Материал" y="-10" x="-90">
        <tspan xml:space="preserve">Сталь 08Х17 ГОСТ 5632-2014</tspan>
       </text>
       <text freecad:editable="Масса" y="-30" x="-31.5">
        <tspan xml:space="preserve"/>
       </text>
       <text freecad:editable="Масштаб" y="-30" x="-14">
        <tspan xml:space="preserve">4:1</tspan>
       </text>
       <text freecad:editable="Компания" y="-10" x="-30">
        <tspan xml:space="preserve">Серый MLGamer</tspan>
       </text>
      </g>
      <text freecad:editable="Обозначение" text-anchor="middle" font-size="13.33" y="-47.5" x="-65">
       <tspan xml:space="preserve">000.000.000</tspan>
      </text>
     </g>
    </g>
   </g>
   <metadata>
    <rdf:RDF>
     <cc:Work>
      <dc:title>Шаблон основной надписи А4 ГОСТ 2.104-2006</dc:title>
      <dc:date>2024-04-01</dc:date>
      <dc:creator>
       <cc:Agent>
        <dc:title>Серый MLGamer</dc:title>
       </cc:Agent>
      </dc:creator>
      <dc:rights>
       <cc:Agent>
        <dc:title>2024 Серый MLGamer &lt;Seriy-MLGamer@yandex.ru></dc:title>
       </cc:Agent>
      </dc:rights>
      <dc:language>Русский</dc:language>
      <cc:license rdf:resource="http://creativecommons.org/licenses/by/4.0/"/>
     </cc:Work>
     <cc:License rdf:about="http://creativecommons.org/licenses/by/4.0/">
      <cc:permits rdf:resource="http://creativecommons.org/ns#Reproduction"/>
      <cc:permits rdf:resource="http://creativecommons.org/ns#Distribution"/>
      <cc:requires rdf:resource="http://creativecommons.org/ns#Notice"/>
      <cc:requires rdf:resource="http://creativecommons.org/ns#Attribution"/>
      <cc:permits rdf:resource="http://creativecommons.org/ns#DerivativeWorks"/>
     </cc:License>
    </rdf:RDF>
   </metadata>
  </g>
  <g fill-rule="evenodd" stroke-linecap="square" stroke="black" fill="none" id="DrawingContent" stroke-linejoin="bevel" stroke-width="5">
   <g font-weight="400" stroke="none" fill="#ffffff" font-size="35.2778" font-family="Ubuntu" font-style="normal" transform="matrix(1,0,0,1,1090,900)" fill-opacity="1">
    <path vector-effect="none" d="M400,440 L440,440 L440,-440 L400,-440 L-400,-440 L-440,-440 L-440,440 L-400,440 L400,440" fill-rule="evenodd"/>
   </g>
   <g font-weight="400" stroke="none" fill="#ffffff" font-size="35.2778" font-family="Ubuntu" font-style="normal" transform="matrix(1,0,0,1,1090,900)" fill-opacity="1">
    <path vector-effect="none" d="M400,440 L400,-440 L-400,-440 L-400,440 L400,440" fill-rule="evenodd"/>
   </g>
   <g font-weight="400" stroke="none" fill="#ffffff" font-size="35.2778" font-family="Ubuntu" font-style="normal" transform="matrix(1,0,0,1,1090,900)" fill-opacity="1">
    <path vector-effect="none" d="M400,440 L440,440 L440,-440 L400,-440 L400,440" fill-rule="evenodd"/>
   </g>
   <g stroke-opacity="1" font-weight="400" stroke-linecap="square" stroke="#000000" fill="none" font-size="35.2778" font-family="Ubuntu" font-style="normal" stroke-linejoin="bevel" transform="matrix(1,0,0,1,1090,900)" stroke-width="2.5">
    <path vector-effect="none" d="M400,-428.284 L411.716,-440" fill-rule="evenodd"/>
   </g>
   <g stroke-opacity="1" font-weight="400" stroke-linecap="square" stroke="#000000" fill="none" font-size="35.2778" font-family="Ubuntu" font-style="normal" stroke-linejoin="bevel" transform="matrix(1,0,0,1,1090,900)" stroke-width="2.5">
    <path vector-effect="none" d="M400,-400 L440,-440" fill-rule="evenodd"/>
   </g>
   <g stroke-opacity="1" font-weight="400" stroke-linecap="square" stroke="#000000" fill="none" font-size="35.2778" font-family="Ubuntu" font-style="normal" stroke-linejoin="bevel" transform="matrix(1,0,0,1,1090,900)" stroke-width="2.5">
    <path vector-effect="none" d="M400,-371.716 L440,-411.716" fill-rule="evenodd"/>
   </g>
   <g stroke-opacity="1" font-weight="400" stroke-linecap="square" stroke="#000000" fill="none" font-size="35.2778" font-family="Ubuntu" font-style="normal" stroke-linejoin="bevel" transform="matrix(1,0,0,1,1090,900)" stroke-width="2.5">
    <path vector-effect="none" d="M400,-343.431 L440,-383.431" fill-rule="evenodd"/>
   </g>
   <g stroke-opacity="1" font-weight="400" stroke-linecap="square" stroke="#000000" fill="none" font-size="35.2778" font-family="Ubuntu" font-style="normal" stroke-linejoin="bevel" transform="matrix(1,0,0,1,1090,900)" stroke-width="2.5">
    <path vector-effect="none" d="M400,-315.147 L440,-355.147" fill-rule="evenodd"/>
   </g>
   <g stroke-opacity="1" font-weight="400" stroke-linecap="square" stroke="#000000" fill="none" font-size="35.2778" font-family="Ubuntu" font-style="normal" stroke-linejoin="bevel" transform="matrix(1,0,0,1,1090,900)" stroke-width="2.5">
    <path vector-effect="none" d="M400,-286.863 L440,-326.863" fill-rule="evenodd"/>
   </g>
   <g stroke-opacity="1" font-weight="400" stroke-linecap="square" stroke="#000000" fill="none" font-size="35.2778" font-family="Ubuntu" font-style="normal" stroke-linejoin="bevel" transform="matrix(1,0,0,1,1090,900)" stroke-width="2.5">
    <path vector-effect="none" d="M400,-258.579 L440,-298.579" fill-rule="evenodd"/>
   </g>
   <g stroke-opacity="1" font-weight="400" stroke-linecap="square" stroke="#000000" fill="none" font-size="35.2778" font-family="Ubuntu" font-style="normal" stroke-linejoin="bevel" transform="matrix(1,0,0,1,1090,900)" stroke-width="2.5">
    <path vector-effect="none" d="M400,-230.294 L440,-270.294" fill-rule="evenodd"/>
   </g>
   <g stroke-opacity="1" font-weight="400" stroke-linecap="square" stroke="#000000" fill="none" font-size="35.2778" font-family="Ubuntu" font-style="normal" stroke-linejoin="bevel" transform="matrix(1,0,0,1,1090,900)" stroke-width="2.5">
    <path vector-effect="none" d="M400,-202.01 L440,-242.01" fill-rule="evenodd"/>
   </g>
   <g stroke-opacity="1" font-weight="400" stroke-linecap="square" stroke="#000000" fill="none" font-size="35.2778" font-family="Ubuntu" font-style="normal" stroke-linejoin="bevel" transform="matrix(1,0,0,1,1090,900)" stroke-width="2.5">
    <path vector-effect="none" d="M400,-173.726 L440,-213.726" fill-rule="evenodd"/>
   </g>
   <g stroke-opacity="1" font-weight="400" stroke-linecap="square" stroke="#000000" fill="none" font-size="35.2778" font-family="Ubuntu" font-style="normal" stroke-linejoin="bevel" transform="matrix(1,0,0,1,1090,900)" stroke-width="2.5">
    <path vector-effect="none" d="M400,-145.442 L440,-185.442" fill-rule="evenodd"/>
   </g>
   <g stroke-opacity="1" font-weight="400" stroke-linecap="square" stroke="#000000" fill="none" font-size="35.2778" font-family="Ubuntu" font-style="normal" stroke-linejoin="bevel" transform="matrix(1,0,0,1,1090,900)" stroke-width="2.5">
    <path vector-effect="none" d="M400,-117.157 L440,-157.157" fill-rule="evenodd"/>
   </g>
   <g stroke-opacity="1" font-weight="400" stroke-linecap="square" stroke="#000000" fill="none" font-size="35.2778" font-family="Ubuntu" font-style="normal" stroke-linejoin="bevel" transform="matrix(1,0,0,1,1090,900)" stroke-width="2.5">
    <path vector-effect="none" d="M400,-88.873 L440,-128.873" fill-rule="evenodd"/>
   </g>
   <g stroke-opacity="1" font-weight="400" stroke-linecap="square" stroke="#000000" fill="none" font-size="35.2778" font-family="Ubuntu" font-style="normal" stroke-linejoin="bevel" transform="matrix(1,0,0,1,1090,900)" stroke-width="2.5">
    <path vector-effect="none" d="M400,-60.5887 L440,-100.589" fill-rule="evenodd"/>
   </g>
   <g stroke-opacity="1" font-weight="400" stroke-linecap="square" stroke="#000000" fill="none" font-size="35.2778" font-family="Ubuntu" font-style="normal" stroke-linejoin="bevel" transform="matrix(1,0,0,1,1090,900)" stroke-width="2.5">
    <path vector-effect="none" d="M400,-32.3045 L440,-72.3045" fill-rule="evenodd"/>
   </g>
   <g stroke-opacity="1" font-weight="400" stroke-linecap="square" stroke="#000000" fill="none" font-size="35.2778" font-family="Ubuntu" font-style="normal" stroke-linejoin="bevel" transform="matrix(1,0,0,1,1090,900)" stroke-width="2.5">
    <path vector-effect="none" d="M400,-4.0202 L440,-44.0202" fill-rule="evenodd"/>
   </g>
   <g stroke-opacity="1" font-weight="400" stroke-linecap="square" stroke="#000000" fill="none" font-size="35.2778" font-family="Ubuntu" font-style="normal" stroke-linejoin="bevel" transform="matrix(1,0,0,1,1090,900)" stroke-width="2.5">
    <path vector-effect="none" d="M400,24.2641 L440,-15.7359" fill-rule="evenodd"/>
   </g>
   <g stroke-opacity="1" font-weight="400" stroke-linecap="square" stroke="#000000" fill="none" font-size="35.2778" font-family="Ubuntu" font-style="normal" stroke-linejoin="bevel" transform="matrix(1,0,0,1,1090,900)" stroke-width="2.5">
    <path vector-effect="none" d="M400,52.5483 L440,12.5483" fill-rule="evenodd"/>
   </g>
   <g stroke-opacity="1" font-weight="400" stroke-linecap="square" stroke="#000000" fill="none" font-size="35.2778" font-family="Ubuntu" font-style="normal" stroke-linejoin="bevel" transform="matrix(1,0,0,1,1090,900)" stroke-width="2.5">
    <path vector-effect="none" d="M400,80.8326 L440,40.8326" fill-rule="evenodd"/>
   </g>
   <g stroke-opacity="1" font-weight="400" stroke-linecap="square" stroke="#000000" fill="none" font-size="35.2778" font-family="Ubuntu" font-style="normal" stroke-linejoin="bevel" transform="matrix(1,0,0,1,1090,900)" stroke-width="2.5">
    <path vector-effect="none" d="M400,109.117 L440,69.1169" fill-rule="evenodd"/>
   </g>
   <g stroke-opacity="1" font-weight="400" stroke-linecap="square" stroke="#000000" fill="none" font-size="35.2778" font-family="Ubuntu" font-style="normal" stroke-linejoin="bevel" transform="matrix(1,0,0,1,1090,900)" stroke-width="2.5">
    <path vector-effect="none" d="M400,137.401 L440,97.4012" fill-rule="evenodd"/>
   </g>
   <g stroke-opacity="1" font-weight="400" stroke-linecap="square" stroke="#000000" fill="none" font-size="35.2778" font-family="Ubuntu" font-style="normal" stroke-linejoin="bevel" transform="matrix(1,0,0,1,1090,900)" stroke-width="2.5">
    <path vector-effect="none" d="M400,165.685 L440,125.685" fill-rule="evenodd"/>
   </g>
   <g stroke-opacity="1" font-weight="400" stroke-linecap="square" stroke="#000000" fill="none" font-size="35.2778" font-family="Ubuntu" font-style="normal" stroke-linejoin="bevel" transform="matrix(1,0,0,1,1090,900)" stroke-width="2.5">
    <path vector-effect="none" d="M400,193.97 L440,153.97" fill-rule="evenodd"/>
   </g>
   <g stroke-opacity="1" font-weight="400" stroke-linecap="square" stroke="#000000" fill="none" font-size="35.2778" font-family="Ubuntu" font-style="normal" stroke-linejoin="bevel" transform="matrix(1,0,0,1,1090,900)" stroke-width="2.5">
    <path vector-effect="none" d="M400,222.254 L440,182.254" fill-rule="evenodd"/>
   </g>
   <g stroke-opacity="1" font-weight="400" stroke-linecap="square" stroke="#000000" fill="none" font-size="35.2778" font-family="Ubuntu" font-style="normal" stroke-linejoin="bevel" transform="matrix(1,0,0,1,1090,900)" stroke-width="2.5">
    <path vector-effect="none" d="M400,250.538 L440,210.538" fill-rule="evenodd"/>
   </g>
   <g stroke-opacity="1" font-weight="400" stroke-linecap="square" stroke="#000000" fill="none" font-size="35.2778" font-family="Ubuntu" font-style="normal" stroke-linejoin="bevel" transform="matrix(1,0,0,1,1090,900)" stroke-width="2.5">
    <path vector-effect="none" d="M400,278.823 L440,238.823" fill-rule="evenodd"/>
   </g>
   <g stroke-opacity="1" font-weight="400" stroke-linecap="square" stroke="#000000" fill="none" font-size="35.2778" font-family="Ubuntu" font-style="normal" stroke-linejoin="bevel" transform="matrix(1,0,0,1,1090,900)" stroke-width="2.5">
    <path vector-effect="none" d="M400,307.107 L440,267.107" fill-rule="evenodd"/>
   </g>
   <g stroke-opacity="1" font-weight="400" stroke-linecap="square" stroke="#000000" fill="none" font-size="35.2778" font-family="Ubuntu" font-style="normal" stroke-linejoin="bevel" transform="matrix(1,0,0,1,1090,900)" stroke-width="2.5">
    <path vector-effect="none" d="M400,335.391 L440,295.391" fill-rule="evenodd"/>
   </g>
   <g stroke-opacity="1" font-weight="400" stroke-linecap="square" stroke="#000000" fill="none" font-size="35.2778" font-family="Ubuntu" font-style="normal" stroke-linejoin="bevel" transform="matrix(1,0,0,1,1090,900)" stroke-width="2.5">
    <path vector-effect="none" d="M400,363.675 L440,323.675" fill-rule="evenodd"/>
   </g>
   <g stroke-opacity="1" font-weight="400" stroke-linecap="square" stroke="#000000" fill="none" font-size="35.2778" font-family="Ubuntu" font-style="normal" stroke-linejoin="bevel" transform="matrix(1,0,0,1,1090,900)" stroke-width="2.5">
    <path vector-effect="none" d="M400,391.96 L440,351.96" fill-rule="evenodd"/>
   </g>
   <g stroke-opacity="1" font-weight="400" stroke-linecap="square" stroke="#000000" fill="none" font-size="35.2778" font-family="Ubuntu" font-style="normal" stroke-linejoin="bevel" transform="matrix(1,0,0,1,1090,900)" stroke-width="2.5">
    <path vector-effect="none" d="M400,420.244 L440,380.244" fill-rule="evenodd"/>
   </g>
   <g stroke-opacity="1" font-weight="400" stroke-linecap="square" stroke="#000000" fill="none" font-size="35.2778" font-family="Ubuntu" font-style="normal" stroke-linejoin="bevel" transform="matrix(1,0,0,1,1090,900)" stroke-width="2.5">
    <path vector-effect="none" d="M408.528,440 L440,408.528" fill-rule="evenodd"/>
   </g>
   <g stroke-opacity="1" font-weight="400" stroke-linecap="square" stroke="#000000" fill="none" font-size="35.2778" font-family="Ubuntu" font-style="normal" stroke-linejoin="bevel" transform="matrix(1,0,0,1,1090,900)" stroke-width="2.5">
    <path vector-effect="none" d="M436.812,440 L440,436.812" fill-rule="evenodd"/>
   </g>
   <g font-weight="400" stroke="none" fill="#ffffff" font-size="35.2778" font-family="Ubuntu" font-style="normal" transform="matrix(1,0,0,1,1090,900)" fill-opacity="1">
    <path vector-effect="none" d="M-440,440 L-440,-440 L-400,-440 L-400,440 L-440,440" fill-rule="evenodd"/>
   </g>
   <g stroke-opacity="1" font-weight="400" stroke-linecap="square" stroke="#000000" fill="none" font-size="35.2778" font-family="Ubuntu" font-style="normal" stroke-linejoin="bevel" transform="matrix(1,0,0,1,1090,900)" stroke-width="2.5">
    <path vector-effect="none" d="M-440,-436.812 L-436.812,-440" fill-rule="evenodd"/>
   </g>
   <g stroke-opacity="1" font-weight="400" stroke-linecap="square" stroke="#000000" fill="none" font-size="35.2778" font-family="Ubuntu" font-style="normal" stroke-linejoin="bevel" transform="matrix(1,0,0,1,1090,900)" stroke-width="2.5">
    <path vector-effect="none" d="M-440,-408.528 L-408.528,-440" fill-rule="evenodd"/>
   </g>
   <g stroke-opacity="1" font-weight="400" stroke-linecap="square" stroke="#000000" fill="none" font-size="35.2778" font-family="Ubuntu" font-style="normal" stroke-linejoin="bevel" transform="matrix(1,0,0,1,1090,900)" stroke-width="2.5">
    <path vector-effect="none" d="M-440,-380.244 L-400,-420.244" fill-rule="evenodd"/>
   </g>
   <g stroke-opacity="1" font-weight="400" stroke-linecap="square" stroke="#000000" fill="none" font-size="35.2778" font-family="Ubuntu" font-style="normal" stroke-linejoin="bevel" transform="matrix(1,0,0,1,1090,900)" stroke-width="2.5">
    <path vector-effect="none" d="M-440,-351.96 L-400,-391.96" fill-rule="evenodd"/>
   </g>
   <g stroke-opacity="1" font-weight="400" stroke-linecap="square" stroke="#000000" fill="none" font-size="35.2778" font-family="Ubuntu" font-style="normal" stroke-linejoin="bevel" transform="matrix(1,0,0,1,1090,900)" stroke-width="2.5">
    <path vector-effect="none" d="M-440,-323.675 L-400,-363.675" fill-rule="evenodd"/>
   </g>
   <g stroke-opacity="1" font-weight="400" stroke-linecap="square" stroke="#000000" fill="none" font-size="35.2778" font-family="Ubuntu" font-style="normal" stroke-linejoin="bevel" transform="matrix(1,0,0,1,1090,900)" stroke-width="2.5">
    <path vector-effect="none" d="M-440,-295.391 L-400,-335.391" fill-rule="evenodd"/>
   </g>
   <g stroke-opacity="1" font-weight="400" stroke-linecap="square" stroke="#000000" fill="none" font-size="35.2778" font-family="Ubuntu" font-style="normal" stroke-linejoin="bevel" transform="matrix(1,0,0,1,1090,900)" stroke-width="2.5">
    <path vector-effect="none" d="M-440,-267.107 L-400,-307.107" fill-rule="evenodd"/>
   </g>
   <g stroke-opacity="1" font-weight="400" stroke-linecap="square" stroke="#000000" fill="none" font-size="35.2778" font-family="Ubuntu" font-style="normal" stroke-linejoin="bevel" transform="matrix(1,0,0,1,1090,900)" stroke-width="2.5">
    <path vector-effect="none" d="M-440,-238.823 L-400,-278.823" fill-rule="evenodd"/>
   </g>
   <g stroke-opacity="1" font-weight="400" stroke-linecap="square" stroke="#000000" fill="none" font-size="35.2778" font-family="Ubuntu" font-style="normal" stroke-linejoin="bevel" transform="matrix(1,0,0,1,1090,900)" stroke-width="2.5">
    <path vector-effect="none" d="M-440,-210.538 L-400,-250.538" fill-rule="evenodd"/>
   </g>
   <g stroke-opacity="1" font-weight="400" stroke-linecap="square" stroke="#000000" fill="none" font-size="35.2778" font-family="Ubuntu" font-style="normal" stroke-linejoin="bevel" transform="matrix(1,0,0,1,1090,900)" stroke-width="2.5">
    <path vector-effect="none" d="M-440,-182.254 L-400,-222.254" fill-rule="evenodd"/>
   </g>
   <g stroke-opacity="1" font-weight="400" stroke-linecap="square" stroke="#000000" fill="none" font-size="35.2778" font-family="Ubuntu" font-style="normal" stroke-linejoin="bevel" transform="matrix(1,0,0,1,1090,900)" stroke-width="2.5">
    <path vector-effect="none" d="M-440,-153.97 L-400,-193.97" fill-rule="evenodd"/>
   </g>
   <g stroke-opacity="1" font-weight="400" stroke-linecap="square" stroke="#000000" fill="none" font-size="35.2778" font-family="Ubuntu" font-style="normal" stroke-linejoin="bevel" transform="matrix(1,0,0,1,1090,900)" stroke-width="2.5">
    <path vector-effect="none" d="M-440,-125.685 L-400,-165.685" fill-rule="evenodd"/>
   </g>
   <g stroke-opacity="1" font-weight="400" stroke-linecap="square" stroke="#000000" fill="none" font-size="35.2778" font-family="Ubuntu" font-style="normal" stroke-linejoin="bevel" transform="matrix(1,0,0,1,1090,900)" stroke-width="2.5">
    <path vector-effect="none" d="M-440,-97.4012 L-400,-137.401" fill-rule="evenodd"/>
   </g>
   <g stroke-opacity="1" font-weight="400" stroke-linecap="square" stroke="#000000" fill="none" font-size="35.2778" font-family="Ubuntu" font-style="normal" stroke-linejoin="bevel" transform="matrix(1,0,0,1,1090,900)" stroke-width="2.5">
    <path vector-effect="none" d="M-440,-69.1169 L-400,-109.117" fill-rule="evenodd"/>
   </g>
   <g stroke-opacity="1" font-weight="400" stroke-linecap="square" stroke="#000000" fill="none" font-size="35.2778" font-family="Ubuntu" font-style="normal" stroke-linejoin="bevel" transform="matrix(1,0,0,1,1090,900)" stroke-width="2.5">
    <path vector-effect="none" d="M-440,-40.8326 L-400,-80.8326" fill-rule="evenodd"/>
   </g>
   <g stroke-opacity="1" font-weight="400" stroke-linecap="square" stroke="#000000" fill="none" font-size="35.2778" font-family="Ubuntu" font-style="normal" stroke-linejoin="bevel" transform="matrix(1,0,0,1,1090,900)" stroke-width="2.5">
    <path vector-effect="none" d="M-440,-12.5483 L-400,-52.5483" fill-rule="evenodd"/>
   </g>
   <g stroke-opacity="1" font-weight="400" stroke-linecap="square" stroke="#000000" fill="none" font-size="35.2778" font-family="Ubuntu" font-style="normal" stroke-linejoin="bevel" transform="matrix(1,0,0,1,1090,900)" stroke-width="2.5">
    <path vector-effect="none" d="M-440,15.7359 L-400,-24.2641" fill-rule="evenodd"/>
   </g>
   <g stroke-opacity="1" font-weight="400" stroke-linecap="square" stroke="#000000" fill="none" font-size="35.2778" font-family="Ubuntu" font-style="normal" stroke-linejoin="bevel" transform="matrix(1,0,0,1,1090,900)" stroke-width="2.5">
    <path vector-effect="none" d="M-440,44.0202 L-400,4.0202" fill-rule="evenodd"/>
   </g>
   <g stroke-opacity="1" font-weight="400" stroke-linecap="square" stroke="#000000" fill="none" font-size="35.2778" font-family="Ubuntu" font-style="normal" stroke-linejoin="bevel" transform="matrix(1,0,0,1,1090,900)" stroke-width="2.5">
    <path vector-effect="none" d="M-440,72.3045 L-400,32.3045" fill-rule="evenodd"/>
   </g>
   <g stroke-opacity="1" font-weight="400" stroke-linecap="square" stroke="#000000" fill="none" font-size="35.2778" font-family="Ubuntu" font-style="normal" stroke-linejoin="bevel" transform="matrix(1,0,0,1,1090,900)" stroke-width="2.5">
    <path vector-effect="none" d="M-440,100.589 L-400,60.5887" fill-rule="evenodd"/>
   </g>
   <g stroke-opacity="1" font-weight="400" stroke-linecap="square" stroke="#000000" fill="none" font-size="35.2778" font-family="Ubuntu" font-style="normal" stroke-linejoin="bevel" transform="matrix(1,0,0,1,1090,900)" stroke-width="2.5">
    <path vector-effect="none" d="M-440,128.873 L-400,88.873" fill-rule="evenodd"/>
   </g>
   <g stroke-opacity="1" font-weight="400" stroke-linecap="square" stroke="#000000" fill="none" font-size="35.2778" font-family="Ubuntu" font-style="normal" stroke-linejoin="bevel" transform="matrix(1,0,0,1,1090,900)" stroke-width="2.5">
    <path vector-effect="none" d="M-440,157.157 L-400,117.157" fill-rule="evenodd"/>
   </g>
   <g stroke-opacity="1" font-weight="400" stroke-linecap="square" stroke="#000000" fill="none" font-size="35.2778" font-family="Ubuntu" font-style="normal" stroke-linejoin="bevel" transform="matrix(1,0,0,1,1090,900)" stroke-width="2.5">
    <path vector-effect="none" d="M-440,185.442 L-400,145.442" fill-rule="evenodd"/>
   </g>
   <g stroke-opacity="1" font-weight="400" stroke-linecap="square" stroke="#000000" fill="none" font-size="35.2778" font-family="Ubuntu" font-style="normal" stroke-linejoin="bevel" transform="matrix(1,0,0,1,1090,900)" stroke-width="2.5">
    <path vector-effect="none" d="M-440,213.726 L-400,173.726" fill-rule="evenodd"/>
   </g>
   <g stroke-opacity="1" font-weight="400" stroke-linecap="square" stroke="#000000" fill="none" font-size="35.2778" font-family="Ubuntu" font-style="normal" stroke-linejoin="bevel" transform="matrix(1,0,0,1,1090,900)" stroke-width="2.5">
    <path vector-effect="none" d="M-440,242.01 L-400,202.01" fill-rule="evenodd"/>
   </g>
   <g stroke-opacity="1" font-weight="400" stroke-linecap="square" stroke="#000000" fill="none" font-size="35.2778" font-family="Ubuntu" font-style="normal" stroke-linejoin="bevel" transform="matrix(1,0,0,1,1090,900)" stroke-width="2.5">
    <path vector-effect="none" d="M-440,270.294 L-400,230.294" fill-rule="evenodd"/>
   </g>
   <g stroke-opacity="1" font-weight="400" stroke-linecap="square" stroke="#000000" fill="none" font-size="35.2778" font-family="Ubuntu" font-style="normal" stroke-linejoin="bevel" transform="matrix(1,0,0,1,1090,900)" stroke-width="2.5">
    <path vector-effect="none" d="M-440,298.579 L-400,258.579" fill-rule="evenodd"/>
   </g>
   <g stroke-opacity="1" font-weight="400" stroke-linecap="square" stroke="#000000" fill="none" font-size="35.2778" font-family="Ubuntu" font-style="normal" stroke-linejoin="bevel" transform="matrix(1,0,0,1,1090,900)" stroke-width="2.5">
    <path vector-effect="none" d="M-440,326.863 L-400,286.863" fill-rule="evenodd"/>
   </g>
   <g stroke-opacity="1" font-weight="400" stroke-linecap="square" stroke="#000000" fill="none" font-size="35.2778" font-family="Ubuntu" font-style="normal" stroke-linejoin="bevel" transform="matrix(1,0,0,1,1090,900)" stroke-width="2.5">
    <path vector-effect="none" d="M-440,355.147 L-400,315.147" fill-rule="evenodd"/>
   </g>
   <g stroke-opacity="1" font-weight="400" stroke-linecap="square" stroke="#000000" fill="none" font-size="35.2778" font-family="Ubuntu" font-style="normal" stroke-linejoin="bevel" transform="matrix(1,0,0,1,1090,900)" stroke-width="2.5">
    <path vector-effect="none" d="M-440,383.431 L-400,343.431" fill-rule="evenodd"/>
   </g>
   <g stroke-opacity="1" font-weight="400" stroke-linecap="square" stroke="#000000" fill="none" font-size="35.2778" font-family="Ubuntu" font-style="normal" stroke-linejoin="bevel" transform="matrix(1,0,0,1,1090,900)" stroke-width="2.5">
    <path vector-effect="none" d="M-440,411.716 L-400,371.716" fill-rule="evenodd"/>
   </g>
   <g stroke-opacity="1" font-weight="400" stroke-linecap="square" stroke="#000000" fill="none" font-size="35.2778" font-family="Ubuntu" font-style="normal" stroke-linejoin="bevel" transform="matrix(1,0,0,1,1090,900)" stroke-width="2.5">
    <path vector-effect="none" d="M-440,440 L-400,400" fill-rule="evenodd"/>
   </g>
   <g stroke-opacity="1" font-weight="400" stroke-linecap="square" stroke="#000000" fill="none" font-size="35.2778" font-family="Ubuntu" font-style="normal" stroke-linejoin="bevel" transform="matrix(1,0,0,1,1090,900)" stroke-width="2.5">
    <path vector-effect="none" d="M-411.716,440 L-400,428.284" fill-rule="evenodd"/>
   </g>
   <g stroke-opacity="1" font-weight="400" stroke-linecap="round" stroke="#000000" fill="none" font-size="35.2778" font-family="Ubuntu" font-style="normal" stroke-linejoin="bevel" transform="matrix(1,0,0,1,1090,900)" stroke-width="5">
    <path vector-effect="none" d="M-440,440 L-440,-440" fill-rule="evenodd"/>
   </g>
   <g stroke-opacity="1" font-weight="400" stroke-linecap="round" stroke="#000000" fill="none" font-size="35.2778" font-family="Ubuntu" font-style="normal" stroke-linejoin="bevel" transform="matrix(1,0,0,1,1090,900)" stroke-width="5">
    <path vector-effect="none" d="M-400,-440 L-400,440" fill-rule="evenodd"/>
   </g>
   <g stroke-opacity="1" font-weight="400" stroke-linecap="round" stroke="#000000" fill="none" font-size="35.2778" font-family="Ubuntu" font-style="normal" stroke-linejoin="bevel" transform="matrix(1,0,0,1,1090,900)" stroke-width="5">
    <path vector-effect="none" d="M-440,-440 L-400,-440" fill-rule="evenodd"/>
   </g>
   <g stroke-opacity="1" font-weight="400" stroke-linecap="round" stroke="#000000" fill="none" font-size="35.2778" font-family="Ubuntu" font-style="normal" stroke-linejoin="bevel" transform="matrix(1,0,0,1,1090,900)" stroke-width="5">
    <path vector-effect="none" d="M-440,440 L-400,440" fill-rule="evenodd"/>
   </g>
   <g stroke-opacity="1" font-weight="400" stroke-linecap="round" stroke="#000000" fill="none" font-size="35.2778" font-family="Ubuntu" font-style="normal" stroke-linejoin="bevel" transform="matrix(1,0,0,1,1090,900)" stroke-width="5">
    <path vector-effect="none" d="M400,-440 L440,-440" fill-rule="evenodd"/>
   </g>
   <g stroke-opacity="1" font-weight="400" stroke-linecap="round" stroke="#000000" fill="none" font-size="35.2778" font-family="Ubuntu" font-style="normal" stroke-linejoin="bevel" transform="matrix(1,0,0,1,1090,900)" stroke-width="5">
    <path vector-effect="none" d="M400,-440 L-400,-440" fill-rule="evenodd"/>
   </g>
   <g stroke-opacity="1" font-weight="400" stroke-linecap="round" stroke="#000000" fill="none" font-size="35.2778" font-family="Ubuntu" font-style="normal" stroke-linejoin="bevel" transform="matrix(1,0,0,1,1090,900)" stroke-width="5">
    <path vector-effect="none" d="M400,440 L440,440" fill-rule="evenodd"/>
   </g>
   <g stroke-opacity="1" font-weight="400" stroke-linecap="round" stroke="#000000" fill="none" font-size="35.2778" font-family="Ubuntu" font-style="normal" stroke-linejoin="bevel" transform="matrix(1,0,0,1,1090,900)" stroke-width="5">
    <path vector-effect="none" d="M400,440 L-400,440" fill-rule="evenodd"/>
   </g>
   <g stroke-opacity="1" font-weight="400" stroke-linecap="round" stroke="#000000" fill="none" font-size="35.2778" font-family="Ubuntu" font-style="normal" stroke-linejoin="bevel" transform="matrix(1,0,0,1,1090,900)" stroke-width="5">
    <path vector-effect="none" d="M400,440 L400,-440" fill-rule="evenodd"/>
   </g>
   <g stroke-opacity="1" font-weight="400" stroke-linecap="round" stroke="#000000" fill="none" font-size="35.2778" font-family="Ubuntu" font-style="normal" stroke-linejoin="bevel" transform="matrix(1,0,0,1,1090,900)" stroke-width="5">
    <path vector-effect="none" d="M440,440 L440,-440" fill-rule="evenodd"/>
   </g>
   <g stroke-opacity="1" font-weight="400" stroke-dashoffset="0" stroke-dasharray="100 10 10 10" stroke-linecap="round" stroke="#000000" fill="none" font-size="35.2778" font-family="Ubuntu" font-style="normal" stroke-linejoin="bevel" transform="matrix(1,0,0,1,1090,900)" stroke-width="2.5">
    <path vector-effect="none" d="M2.27374e-12,490 L2.27374e-12,-490" fill-rule="evenodd"/>
   </g>
   <g stroke-opacity="1" font-weight="400" stroke-linecap="square" stroke="#000000" fill="none" font-size="35.2778" font-family="Ubuntu" font-style="normal" stroke-linejoin="bevel" transform="matrix(0,-1,1,0,494.809,929.719)" stroke-width="5">
    <text font-weight="400" stroke="none" fill="#000000" font-size="50" font-family="GOST type A" xml:space="preserve" y="39" font-style="italic" x="4" fill-opacity="1">22</text>
   </g>
   <g stroke-opacity="1" font-weight="400" stroke-linecap="round" stroke="#000000" fill="none" font-size="35.2778" font-family="Ubuntu" font-style="normal" stroke-linejoin="bevel" transform="matrix(1,0,0,1,1090,900)" stroke-width="2.5">
    <path vector-effect="none" d="M-540.191,440 L-540.191,-440 M-440,-440 L-560.191,-440 M-440,440 L-560.191,440" fill-rule="evenodd"/>
   </g>
   <g stroke-opacity="1" font-weight="400" stroke-linecap="round" stroke="#000000" fill="#000000" font-size="35.2778" font-family="Ubuntu" font-style="normal" stroke-linejoin="bevel" transform="matrix(1,0,0,1,549.809,460)" stroke-width="2.5" fill-opacity="1">
    <path vector-effect="none" d="M0,0 L-8.33333,50 L8.33333,50 L0,0" fill-rule="evenodd"/>
   </g>
   <g stroke-opacity="1" font-weight="400" stroke-linecap="round" stroke="#000000" fill="#000000" font-size="35.2778" font-family="Ubuntu" font-style="normal" stroke-linejoin="bevel" transform="matrix(1,0,0,1,549.809,1340)" stroke-width="2.5" fill-opacity="1">
    <path vector-effect="none" d="M0,0 L8.33333,-50 L-8.33333,-50 L0,0" fill-rule="evenodd"/>
   </g>
   <g stroke-opacity="1" font-weight="400" stroke-linecap="square" stroke="#000000" fill="none" font-size="35.2778" font-family="Ubuntu" font-style="normal" stroke-linejoin="bevel" transform="matrix(1,0,0,1,1051.74,296.156)" stroke-width="5">
    <text font-weight="400" stroke="none" fill="#000000" font-size="50" font-family="GOST type A" xml:space="preserve" y="51" font-style="italic" x="4" fill-opacity="1">⌀</text>
    <text font-weight="400" stroke="none" fill="#000000" font-size="50" font-family="GOST type A" xml:space="preserve" y="51" font-style="italic" x="34.0938" fill-opacity="1">20</text>
   </g>
   <g stroke-opacity="1" font-weight="400" stroke-linecap="round" stroke="#000000" fill="none" font-size="35.2778" font-family="Ubuntu" font-style="normal" stroke-linejoin="bevel" transform="matrix(1,0,0,1,1090,900)" stroke-width="2.5">
    <path vector-effect="none" d="M400,-539.594 L-400,-539.594 M-400,-440 L-400,-559.594 M400,-440 L400,-559.594" fill-rule="evenodd"/>
   </g>
   <g stroke-opacity="1" font-weight="400" stroke-linecap="round" stroke="#000000" fill="#000000" font-size="35.2778" font-family="Ubuntu" font-style="normal" stroke-linejoin="bevel" transform="matrix(1,0,0,1,690,360.406)" stroke-width="2.5" fill-opacity="1">
    <path vector-effect="none" d="M0,0 L50,8.33333 L50,-8.33333 L0,0" fill-rule="evenodd"/>
   </g>
   <g stroke-opacity="1" font-weight="400" stroke-linecap="round" stroke="#000000" fill="#000000" font-size="35.2778" font-family="Ubuntu" font-style="normal" stroke-linejoin="bevel" transform="matrix(1,0,0,1,1490,360.406)" stroke-width="2.5" fill-opacity="1">
    <path vector-effect="none" d="M0,0 L-50,-8.33333 L-50,8.33333 L0,0" fill-rule="evenodd"/>
   </g>
   <g stroke-opacity="1" font-weight="400" stroke-linecap="square" stroke="#000000" fill="none" font-size="35.2778" font-family="Ubuntu" font-style="normal" stroke-linejoin="bevel" transform="matrix(1,0,0,1,1043.96,224.094)" stroke-width="5">
    <text font-weight="400" stroke="none" fill="#000000" font-size="50" font-family="GOST type A" xml:space="preserve" y="51" font-style="italic" x="4" fill-opacity="1">□</text>
    <text font-weight="400" stroke="none" fill="#000000" font-size="50" font-family="GOST type A" xml:space="preserve" y="51" font-style="italic" x="51.2344" fill-opacity="1">22</text>
   </g>
   <g stroke-opacity="1" font-weight="400" stroke-linecap="round" stroke="#000000" fill="none" font-size="35.2778" font-family="Ubuntu" font-style="normal" stroke-linejoin="bevel" transform="matrix(1,0,0,1,1090,900)" stroke-width="2.5">
    <path vector-effect="none" d="M-440,-610.156 L440,-610.156 M440,440 L440,-630.156 M-440,440 L-440,-630.156" fill-rule="evenodd"/>
   </g>
   <g stroke-opacity="1" font-weight="400" stroke-linecap="round" stroke="#000000" fill="#000000" font-size="35.2778" font-family="Ubuntu" font-style="normal" stroke-linejoin="bevel" transform="matrix(1,0,0,1,1530,289.844)" stroke-width="2.5" fill-opacity="1">
    <path vector-effect="none" d="M0,0 L-50,-8.33333 L-50,8.33333 L0,0" fill-rule="evenodd"/>
   </g>
   <g stroke-opacity="1" font-weight="400" stroke-linecap="round" stroke="#000000" fill="#000000" font-size="35.2778" font-family="Ubuntu" font-style="normal" stroke-linejoin="bevel" transform="matrix(1,0,0,1,650,289.844)" stroke-width="2.5" fill-opacity="1">
    <path vector-effect="none" d="M0,0 L50,8.33333 L50,-8.33333 L0,0" fill-rule="evenodd"/>
   </g>
  </g>
 </g>
 <metadata>
  <rdf:RDF>
   <cc:Work>
    <dc:title>Цилиндр рабочий</dc:title>
    <dc:description>Drawing page: Page exported from FreeCAD document: cylinder_drawing</dc:description>
    <dc:date>2024-04-01</dc:date>
    <dc:creator><cc:Agent><dc:title>Серый MLGamer</dc:title></cc:Agent></dc:creator>
    <dc:rights><cc:Agent><dc:title>2024 Серый MLGamer &lt;Seriy-MLGamer@yandex.ru&gt;</dc:title></cc:Agent></dc:rights>
    <dc:language>Русский</dc:language>
    <cc:license rdf:resource="COPYING.md" />
   </cc:Work>
   <cc:License rdf:about="COPYING.md">
    <cc:permits rdf:resource="http://creativecommons.org/ns#Reproduction" />
    <cc:permits rdf:resource="http://creativecommons.org/ns#Distribution" />
    <cc:requires rdf:resource="http://creativecommons.org/ns#Notice" />
    <cc:requires rdf:resource="http://creativecommons.org/ns#SourceCode" />
    <cc:permits rdf:resource="http://creativecommons.org/ns#DerivativeWorks" />
    <cc:requires rdf:resource="http://creativecommons.org/ns#Copyleft" />
   </cc:License>
  </rdf:RDF>
 </metadata>
</svg>
