999
FreeCAD v0.20 
  0
SECTION
  2
HEADER
  9
$ACADVER
  1
AC1014
  9
$ACADMAINTVER
 70
     9
  9
$DWGCODEPAGE
  3
ANSI_1252
  9
$TEXTSTYLE
  7
STANDARD
  9
$DIMSTYLE
  2
STANDARD
  9
$DIMTXSTY
  7
STANDARD
  9
$CMLSTYLE
  2
STANDARD
  9
$LUNITS
 70
2
  9
$INSUNITS
 70
4
  9
$PEXTMAX
 10
50
 20
50
 30
50
  9
$PEXTMIN
 10
0
 20
0
 30
0
  9
$HANDSEED
  5
FFFF
  0
ENDSEC
  0
SECTION
  2
CLASSES
  0
CLASS
  1
ACDBDICTIONARYWDFLT
  2
AcDbDictionaryWithDefault
  3
ObjectDBX Classes
 90
        0
280
     0
281
     0
  0
CLASS
  1
XRECORD
  2
AcDbXrecord
  3
ObjectDBX Classes
 90
        0
280
     0
281
     0
  0
CLASS
  1
LWPOLYLINE
  2
AcDbPolyline
  3
ObjectDBX Classes
 90
        0
280
     0
281
     1
  0
ENDSEC
  0
SECTION
  2
TABLES
  0
TABLE
  2
VPORT
  5
20
330
0
100
AcDbSymbolTable
 70
     1
  0
VPORT
  5
21
330
20
100
AcDbSymbolTableRecord
100
AcDbViewportTableRecord
  2
*ACTIVE
 70
     0
  0
ENDTAB
  0
TABLE
  2
LTYPE
  5
22
330
0
100
AcDbSymbolTable
 70
     1
  0
LTYPE
  5
23
330
21
100
AcDbSymbolTableRecord
100
AcDbLinetypeTableRecord
  2
BYBLOCK
 70
     0
  3

 72
    65
 73
     0
 40
0.0
  0
LTYPE
  5
24
330
21
100
AcDbSymbolTableRecord
100
AcDbLinetypeTableRecord
  2
BYLAYER
 70
     0
  3

 72
    65
 73
     0
 40
0.0
  0
LTYPE
  5
25
330
21
100
AcDbSymbolTableRecord
100
AcDbLinetypeTableRecord
  2
CONTINUOUS
 70
     0
  3
Solid line
 72
    65
 73
     0
 40
0.0
  0
ENDTAB
  0
TABLE
  2
LAYER
  5
ACC
330
0
100
AcDbSymbolTable
 70
2
  0
LAYER
  5
ACD
330
ACC
100
AcDbSymbolTableRecord
100
AcDbLayerTableRecord
  2
0
 70
   0
 62
   7
  6
CONTINUOUS
  0
LAYER
  5
ACE
330
ACC
100
AcDbSymbolTableRecord
100
AcDbLayerTableRecord
  2
View
 70
    0
 62
    7
  6
CONTINUOUS
  0
ENDTAB
  0
TABLE
  2
STYLE
  5
70
330
0
100
AcDbSymbolTable
 70
     2
  0
STYLE
  5
71
330
70
100
AcDbSymbolTableRecord
100
AcDbTextStyleTableRecord
  2
STANDARD
 70
     0
 40
0.0
 41
1.0
 50
0.0
 71
     0
 42
2.5
  3
arial.ttf
  4

  0
STYLE
  5
72
330
70
100
AcDbSymbolTableRecord
100
AcDbTextStyleTableRecord
  2
ANNOTATIVE
 70
     0
 40
0.0
 41
1.0
 50
0.0
 71
     0
 42
2.5
  3
arial.ttf
  4

  0
ENDTAB
  0
TABLE
  2
VIEW
  5
73
330
0
100
AcDbSymbolTable
 70
     0
  0
ENDTAB
  0
TABLE
  2
UCS
  5
74
330
0
100
AcDbSymbolTable
 70
     0
  0
ENDTAB
  0
TABLE
  2
APPID
  5
75
330
0
100
AcDbSymbolTable
 70
     2
  0
APPID
  5
76
330
75
100
AcDbSymbolTableRecord
100
AcDbRegAppTableRecord
  2
ACAD
 70
     0
  0
APPID
  5
77
330
75
100
AcDbSymbolTableRecord
100
AcDbRegAppTableRecord
  2
ACADANNOTATIVE
 70
     0
  0
ENDTAB
  0
TABLE
  2
DIMSTYLE
  5
78
330
0
100
AcDbSymbolTable
 70
     2
  0
DIMSTYLE
105
79
330
78
100
AcDbSymbolTableRecord
100
AcDbDimStyleTableRecord
  2
STANDARD
 70
     0
  3

  4

  5

  6

  7

 40
0.0
 41
2.5
 42
0.625
 43
3.75
 44
1.25
 45
0.0
 46
0.0
 47
0.0
 48
0.0
140
2.5
141
2.5
142
0.0
143
0.03937007874016
144
1.0
145
0.0
146
1.0
147
0.625
 71
     0
 72
     0
 73
     0
 74
     0
 75
     0
 76
     0
 77
     1
 78
     8
170
     0
171
     3
172
     1
173
     0
174
     0
175
     0
176
     0
177
     0
178
     0
270
     2
271
     2
272
     2
273
     2
274
     3
340
71
275
     0
280
     0
281
     0
282
     0
283
     0
284
     8
285
     0
286
     0
287
     3
288
     0
  0
ENDTAB
  0
TABLE
  2
BLOCK_RECORD
  5
A01
330
0
100
AcDbSymbolTable
  70
5
  0
BLOCK_RECORD
  5
A02
330
A01
100
AcDbSymbolTableRecord
100
AcDbBlockTableRecord
  2
*MODEL_SPACE
  0
BLOCK_RECORD
  5
A03
330
A01
100
AcDbSymbolTableRecord
100
AcDbBlockTableRecord
  2
*PAPER_SPACE
  0
ENDTAB
  0
ENDSEC
  0
SECTION
  2
BLOCKS
  0
BLOCK
  5
A04
330
A02
100
AcDbEntity
  8
0
100
AcDbBlockBegin
  2
*MODEL_SPACE
 70
   0
 10
0
 20
0
 30
0
  3
*MODEL_SPACE
  1
 
  0
ENDBLK
  5
A05
330
A02
100
AcDbEntity
  8
0
100
AcDbBlockEnd
  0
BLOCK
  5
A06
330
A03
100
AcDbEntity
 67
1
  8
0
100
AcDbBlockBegin
  2
*PAPER_SPACE
 70
   0
 10
0
 20
0
 30
0
  3
*PAPER_SPACE
  1
 
  0
ENDBLK
  5
A07
330
A03
100
AcDbEntity
 67
    1
  8
0
100
AcDbBlockEnd
  0
ENDSEC
  0
SECTION
  2
ENTITIES
  0
LINE
  5
A08
330
A02
100
AcDbEntity
  8
View
100
AcDbLine
 10
0
 20
0
 30
0
 11
0
 21
1000
 31
0
  0
LINE
  5
A09
330
A02
100
AcDbEntity
  8
View
100
AcDbLine
 10
2000
 20
0
 30
0
 11
2000
 21
1000
 31
0
  0
LINE
  5
A0A
330
A02
100
AcDbEntity
  8
View
100
AcDbLine
 10
0
 20
0
 30
0
 11
2000
 21
0
 31
0
  0
LINE
  5
A0B
330
A02
100
AcDbEntity
  8
View
100
AcDbLine
 10
0
 20
1000
 30
0
 11
2000
 21
1000
 31
0
  0
LINE
  5
A0C
330
A02
100
AcDbEntity
  8
View
100
AcDbLine
 10
1891
 20
892
 30
0
 11
1891
 21
990
 31
0
  0
LINE
  5
A0D
330
A02
100
AcDbEntity
  8
View
100
AcDbLine
 10
1990
 20
892
 30
0
 11
1990
 21
990
 31
0
  0
LINE
  5
A0E
330
A02
100
AcDbEntity
  8
View
100
AcDbLine
 10
1891
 20
892
 30
0
 11
1990
 21
892
 31
0
  0
LINE
  5
A0F
330
A02
100
AcDbEntity
  8
View
100
AcDbLine
 10
1891
 20
990
 30
0
 11
1990
 21
990
 31
0
  0
LINE
  5
A10
330
A02
100
AcDbEntity
  8
View
100
AcDbLine
 10
1891
 20
793
 30
0
 11
1891
 21
891
 31
0
  0
LINE
  5
A11
330
A02
100
AcDbEntity
  8
View
100
AcDbLine
 10
1990
 20
793
 30
0
 11
1990
 21
891
 31
0
  0
LINE
  5
A12
330
A02
100
AcDbEntity
  8
View
100
AcDbLine
 10
1891
 20
793
 30
0
 11
1990
 21
793
 31
0
  0
LINE
  5
A13
330
A02
100
AcDbEntity
  8
View
100
AcDbLine
 10
1891
 20
891
 30
0
 11
1990
 21
891
 31
0
  0
LINE
  5
A14
330
A02
100
AcDbEntity
  8
View
100
AcDbLine
 10
1791
 20
892
 30
0
 11
1791
 21
990
 31
0
  0
LINE
  5
A15
330
A02
100
AcDbEntity
  8
View
100
AcDbLine
 10
1890
 20
892
 30
0
 11
1890
 21
990
 31
0
  0
LINE
  5
A16
330
A02
100
AcDbEntity
  8
View
100
AcDbLine
 10
1791
 20
892
 30
0
 11
1890
 21
892
 31
0
  0
LINE
  5
A17
330
A02
100
AcDbEntity
  8
View
100
AcDbLine
 10
1791
 20
990
 30
0
 11
1890
 21
990
 31
0
  0
LINE
  5
A18
330
A02
100
AcDbEntity
  8
View
100
AcDbLine
 10
1791
 20
793
 30
0
 11
1791
 21
891
 31
0
  0
LINE
  5
A19
330
A02
100
AcDbEntity
  8
View
100
AcDbLine
 10
1890
 20
793
 30
0
 11
1890
 21
891
 31
0
  0
LINE
  5
A1A
330
A02
100
AcDbEntity
  8
View
100
AcDbLine
 10
1791
 20
793
 30
0
 11
1890
 21
793
 31
0
  0
LINE
  5
A1B
330
A02
100
AcDbEntity
  8
View
100
AcDbLine
 10
1791
 20
891
 30
0
 11
1890
 21
891
 31
0
  0
LINE
  5
A1C
330
A02
100
AcDbEntity
  8
View
100
AcDbLine
 10
1691
 20
892
 30
0
 11
1691
 21
990
 31
0
  0
LINE
  5
A1D
330
A02
100
AcDbEntity
  8
View
100
AcDbLine
 10
1790
 20
892
 30
0
 11
1790
 21
990
 31
0
  0
LINE
  5
A1E
330
A02
100
AcDbEntity
  8
View
100
AcDbLine
 10
1691
 20
892
 30
0
 11
1790
 21
892
 31
0
  0
LINE
  5
A1F
330
A02
100
AcDbEntity
  8
View
100
AcDbLine
 10
1691
 20
990
 30
0
 11
1790
 21
990
 31
0
  0
LINE
  5
A20
330
A02
100
AcDbEntity
  8
View
100
AcDbLine
 10
1691
 20
793
 30
0
 11
1691
 21
891
 31
0
  0
LINE
  5
A21
330
A02
100
AcDbEntity
  8
View
100
AcDbLine
 10
1790
 20
793
 30
0
 11
1790
 21
891
 31
0
  0
LINE
  5
A22
330
A02
100
AcDbEntity
  8
View
100
AcDbLine
 10
1691
 20
793
 30
0
 11
1790
 21
793
 31
0
  0
LINE
  5
A23
330
A02
100
AcDbEntity
  8
View
100
AcDbLine
 10
1691
 20
891
 30
0
 11
1790
 21
891
 31
0
  0
LINE
  5
A24
330
A02
100
AcDbEntity
  8
View
100
AcDbLine
 10
1591
 20
892
 30
0
 11
1591
 21
990
 31
0
  0
LINE
  5
A25
330
A02
100
AcDbEntity
  8
View
100
AcDbLine
 10
1690
 20
892
 30
0
 11
1690
 21
990
 31
0
  0
LINE
  5
A26
330
A02
100
AcDbEntity
  8
View
100
AcDbLine
 10
1591
 20
892
 30
0
 11
1690
 21
892
 31
0
  0
LINE
  5
A27
330
A02
100
AcDbEntity
  8
View
100
AcDbLine
 10
1591
 20
990
 30
0
 11
1690
 21
990
 31
0
  0
LINE
  5
A28
330
A02
100
AcDbEntity
  8
View
100
AcDbLine
 10
1591
 20
793
 30
0
 11
1591
 21
891
 31
0
  0
LINE
  5
A29
330
A02
100
AcDbEntity
  8
View
100
AcDbLine
 10
1690
 20
793
 30
0
 11
1690
 21
891
 31
0
  0
LINE
  5
A2A
330
A02
100
AcDbEntity
  8
View
100
AcDbLine
 10
1591
 20
793
 30
0
 11
1690
 21
793
 31
0
  0
LINE
  5
A2B
330
A02
100
AcDbEntity
  8
View
100
AcDbLine
 10
1591
 20
891
 30
0
 11
1690
 21
891
 31
0
  0
LINE
  5
A2C
330
A02
100
AcDbEntity
  8
View
100
AcDbLine
 10
1886
 20
786.5
 30
0
 11
1886
 21
792
 31
0
  0
LINE
  5
A2D
330
A02
100
AcDbEntity
  8
View
100
AcDbLine
 10
1990
 20
786.5
 30
0
 11
1990
 21
792
 31
0
  0
LINE
  5
A2E
330
A02
100
AcDbEntity
  8
View
100
AcDbLine
 10
1886
 20
786.5
 30
0
 11
1990
 21
786.5
 31
0
  0
LINE
  5
A2F
330
A02
100
AcDbEntity
  8
View
100
AcDbLine
 10
1886
 20
792
 30
0
 11
1990
 21
792
 31
0
  0
LINE
  5
A30
330
A02
100
AcDbEntity
  8
View
100
AcDbLine
 10
1886
 20
780
 30
0
 11
1886
 21
785.5
 31
0
  0
LINE
  5
A31
330
A02
100
AcDbEntity
  8
View
100
AcDbLine
 10
1886
 20
780
 30
0
 11
1990
 21
780
 31
0
  0
LINE
  5
A32
330
A02
100
AcDbEntity
  8
View
100
AcDbLine
 10
1886
 20
785.5
 30
0
 11
1990
 21
785.5
 31
0
  0
LINE
  5
A33
330
A02
100
AcDbEntity
  8
View
100
AcDbLine
 10
1990
 20
780
 30
0
 11
1990
 21
785.5
 31
0
  0
LINE
  5
A34
330
A02
100
AcDbEntity
  8
View
100
AcDbLine
 10
1888.5
 20
782.5
 30
0
 11
1888.5
 21
783
 31
0
  0
LINE
  5
A35
330
A02
100
AcDbEntity
  8
View
100
AcDbLine
 10
1888.5
 20
782.5
 30
0
 11
1892.5
 21
782.5
 31
0
  0
LINE
  5
A36
330
A02
100
AcDbEntity
  8
View
100
AcDbLine
 10
1892.5
 20
782.5
 30
0
 11
1892.5
 21
783
 31
0
  0
LINE
  5
A37
330
A02
100
AcDbEntity
  8
View
100
AcDbLine
 10
1888.5
 20
783
 30
0
 11
1892.5
 21
783
 31
0
  0
LINE
  5
A38
330
A02
100
AcDbEntity
  8
View
100
AcDbLine
 10
1892
 20
773.5
 30
0
 11
1892
 21
779
 31
0
  0
LINE
  5
A39
330
A02
100
AcDbEntity
  8
View
100
AcDbLine
 10
1892
 20
773.5
 30
0
 11
1990
 21
773.5
 31
0
  0
LINE
  5
A3A
330
A02
100
AcDbEntity
  8
View
100
AcDbLine
 10
1892
 20
779
 30
0
 11
1990
 21
779
 31
0
  0
LINE
  5
A3B
330
A02
100
AcDbEntity
  8
View
100
AcDbLine
 10
1990
 20
773.5
 30
0
 11
1990
 21
779
 31
0
  0
LINE
  5
A3C
330
A02
100
AcDbEntity
  8
View
100
AcDbLine
 10
1931.5
 20
776
 30
0
 11
1931.5
 21
776.5
 31
0
  0
LINE
  5
A3D
330
A02
100
AcDbEntity
  8
View
100
AcDbLine
 10
1931.5
 20
776
 30
0
 11
1950.5
 21
776
 31
0
  0
LINE
  5
A3E
330
A02
100
AcDbEntity
  8
View
100
AcDbLine
 10
1950.5
 20
776
 30
0
 11
1950.5
 21
776.5
 31
0
  0
LINE
  5
A3F
330
A02
100
AcDbEntity
  8
View
100
AcDbLine
 10
1931.5
 20
776.5
 30
0
 11
1950.5
 21
776.5
 31
0
  0
LINE
  5
A40
330
A02
100
AcDbEntity
  8
View
100
AcDbLine
 10
1892
 20
767
 30
0
 11
1892
 21
769.5
 31
0
  0
LINE
  5
A41
330
A02
100
AcDbEntity
  8
View
100
AcDbLine
 10
1892
 20
767
 30
0
 11
1990
 21
767
 31
0
  0
LINE
  5
A42
330
A02
100
AcDbEntity
  8
View
100
AcDbLine
 10
1892
 20
769.5
 30
0
 11
1897
 21
769.5
 31
0
  0
LINE
  5
A43
330
A02
100
AcDbEntity
  8
View
100
AcDbLine
 10
1990
 20
767
 30
0
 11
1990
 21
769.5
 31
0
  0
LINE
  5
A44
330
A02
100
AcDbEntity
  8
View
100
AcDbLine
 10
1897
 20
769.5
 30
0
 11
1897
 21
770
 31
0
  0
LINE
  5
A45
330
A02
100
AcDbEntity
  8
View
100
AcDbLine
 10
1985
 20
769.5
 30
0
 11
1990
 21
769.5
 31
0
  0
LINE
  5
A46
330
A02
100
AcDbEntity
  8
View
100
AcDbLine
 10
1892
 20
770
 30
0
 11
1897
 21
770
 31
0
  0
LINE
  5
A47
330
A02
100
AcDbEntity
  8
View
100
AcDbLine
 10
1985
 20
769.5
 30
0
 11
1985
 21
770
 31
0
  0
LINE
  5
A48
330
A02
100
AcDbEntity
  8
View
100
AcDbLine
 10
1892
 20
770
 30
0
 11
1892
 21
772.5
 31
0
  0
LINE
  5
A49
330
A02
100
AcDbEntity
  8
View
100
AcDbLine
 10
1985
 20
770
 30
0
 11
1990
 21
770
 31
0
  0
LINE
  5
A4A
330
A02
100
AcDbEntity
  8
View
100
AcDbLine
 10
1892
 20
772.5
 30
0
 11
1990
 21
772.5
 31
0
  0
LINE
  5
A4B
330
A02
100
AcDbEntity
  8
View
100
AcDbLine
 10
1990
 20
770
 30
0
 11
1990
 21
772.5
 31
0
  0
LINE
  5
A4C
330
A02
100
AcDbEntity
  8
View
100
AcDbLine
 10
1931.5
 20
769.5
 30
0
 11
1931.5
 21
770
 31
0
  0
LINE
  5
A4D
330
A02
100
AcDbEntity
  8
View
100
AcDbLine
 10
1931.5
 20
770
 30
0
 11
1950.5
 21
770
 31
0
  0
LINE
  5
A4E
330
A02
100
AcDbEntity
  8
View
100
AcDbLine
 10
1931.5
 20
769.5
 30
0
 11
1950.5
 21
769.5
 31
0
  0
LINE
  5
A4F
330
A02
100
AcDbEntity
  8
View
100
AcDbLine
 10
1950.5
 20
769.5
 30
0
 11
1950.5
 21
770
 31
0
  0
LINE
  5
A50
330
A02
100
AcDbEntity
  8
View
100
AcDbLine
 10
1965.75
 20
769.5
 30
0
 11
1965.75
 21
770
 31
0
  0
LINE
  5
A51
330
A02
100
AcDbEntity
  8
View
100
AcDbLine
 10
1965.75
 20
769.5
 30
0
 11
1969.75
 21
769.5
 31
0
  0
LINE
  5
A52
330
A02
100
AcDbEntity
  8
View
100
AcDbLine
 10
1969.75
 20
769.5
 30
0
 11
1969.75
 21
770
 31
0
  0
LINE
  5
A53
330
A02
100
AcDbEntity
  8
View
100
AcDbLine
 10
1965.75
 20
770
 30
0
 11
1969.75
 21
770
 31
0
  0
LINE
  5
A54
330
A02
100
AcDbEntity
  8
View
100
AcDbLine
 10
1783
 20
788.5
 30
0
 11
1783
 21
792
 31
0
  0
LINE
  5
A55
330
A02
100
AcDbEntity
  8
View
100
AcDbLine
 10
1885
 20
788.5
 30
0
 11
1885
 21
792
 31
0
  0
LINE
  5
A56
330
A02
100
AcDbEntity
  8
View
100
AcDbLine
 10
1783
 20
788.5
 30
0
 11
1885
 21
788.5
 31
0
  0
LINE
  5
A57
330
A02
100
AcDbEntity
  8
View
100
AcDbLine
 10
1783
 20
792
 30
0
 11
1885
 21
792
 31
0
  0
LINE
  5
A58
330
A02
100
AcDbEntity
  8
View
100
AcDbLine
 10
1680
 20
788.5
 30
0
 11
1680
 21
792
 31
0
  0
LINE
  5
A59
330
A02
100
AcDbEntity
  8
View
100
AcDbLine
 10
1782
 20
788.5
 30
0
 11
1782
 21
792
 31
0
  0
LINE
  5
A5A
330
A02
100
AcDbEntity
  8
View
100
AcDbLine
 10
1680
 20
788.5
 30
0
 11
1782
 21
788.5
 31
0
  0
LINE
  5
A5B
330
A02
100
AcDbEntity
  8
View
100
AcDbLine
 10
1680
 20
792
 30
0
 11
1782
 21
792
 31
0
  0
LINE
  5
A5C
330
A02
100
AcDbEntity
  8
View
100
AcDbLine
 10
1783
 20
784
 30
0
 11
1783
 21
787.5
 31
0
  0
LINE
  5
A5D
330
A02
100
AcDbEntity
  8
View
100
AcDbLine
 10
1783
 20
784
 30
0
 11
1885
 21
784
 31
0
  0
LINE
  5
A5E
330
A02
100
AcDbEntity
  8
View
100
AcDbLine
 10
1783
 20
787.5
 30
0
 11
1885
 21
787.5
 31
0
  0
LINE
  5
A5F
330
A02
100
AcDbEntity
  8
View
100
AcDbLine
 10
1885
 20
784
 30
0
 11
1885
 21
787.5
 31
0
  0
LINE
  5
A60
330
A02
100
AcDbEntity
  8
View
100
AcDbLine
 10
1784.5
 20
785.5
 30
0
 11
1784.5
 21
786
 31
0
  0
LINE
  5
A61
330
A02
100
AcDbEntity
  8
View
100
AcDbLine
 10
1784.5
 20
785.5
 30
0
 11
1788.5
 21
785.5
 31
0
  0
LINE
  5
A62
330
A02
100
AcDbEntity
  8
View
100
AcDbLine
 10
1788.5
 20
785.5
 30
0
 11
1788.5
 21
786
 31
0
  0
LINE
  5
A63
330
A02
100
AcDbEntity
  8
View
100
AcDbLine
 10
1784.5
 20
786
 30
0
 11
1788.5
 21
786
 31
0
  0
LINE
  5
A64
330
A02
100
AcDbEntity
  8
View
100
AcDbLine
 10
1680
 20
784
 30
0
 11
1680
 21
787.5
 31
0
  0
LINE
  5
A65
330
A02
100
AcDbEntity
  8
View
100
AcDbLine
 10
1680
 20
784
 30
0
 11
1782
 21
784
 31
0
  0
LINE
  5
A66
330
A02
100
AcDbEntity
  8
View
100
AcDbLine
 10
1680
 20
787.5
 30
0
 11
1782
 21
787.5
 31
0
  0
LINE
  5
A67
330
A02
100
AcDbEntity
  8
View
100
AcDbLine
 10
1782
 20
784
 30
0
 11
1782
 21
787.5
 31
0
  0
LINE
  5
A68
330
A02
100
AcDbEntity
  8
View
100
AcDbLine
 10
1681.5
 20
785.5
 30
0
 11
1681.5
 21
786
 31
0
  0
LINE
  5
A69
330
A02
100
AcDbEntity
  8
View
100
AcDbLine
 10
1681.5
 20
785.5
 30
0
 11
1685.5
 21
785.5
 31
0
  0
LINE
  5
A6A
330
A02
100
AcDbEntity
  8
View
100
AcDbLine
 10
1685.5
 20
785.5
 30
0
 11
1685.5
 21
786
 31
0
  0
LINE
  5
A6B
330
A02
100
AcDbEntity
  8
View
100
AcDbLine
 10
1681.5
 20
786
 30
0
 11
1685.5
 21
786
 31
0
  0
LINE
  5
A6C
330
A02
100
AcDbEntity
  8
View
100
AcDbLine
 10
1787
 20
779.5
 30
0
 11
1787
 21
783
 31
0
  0
LINE
  5
A6D
330
A02
100
AcDbEntity
  8
View
100
AcDbLine
 10
1787
 20
779.5
 30
0
 11
1885
 21
779.5
 31
0
  0
LINE
  5
A6E
330
A02
100
AcDbEntity
  8
View
100
AcDbLine
 10
1787
 20
783
 30
0
 11
1885
 21
783
 31
0
  0
LINE
  5
A6F
330
A02
100
AcDbEntity
  8
View
100
AcDbLine
 10
1885
 20
779.5
 30
0
 11
1885
 21
783
 31
0
  0
LINE
  5
A70
330
A02
100
AcDbEntity
  8
View
100
AcDbLine
 10
1826.5
 20
781
 30
0
 11
1826.5
 21
781.5
 31
0
  0
LINE
  5
A71
330
A02
100
AcDbEntity
  8
View
100
AcDbLine
 10
1826.5
 20
781
 30
0
 11
1845.5
 21
781
 31
0
  0
LINE
  5
A72
330
A02
100
AcDbEntity
  8
View
100
AcDbLine
 10
1845.5
 20
781
 30
0
 11
1845.5
 21
781.5
 31
0
  0
LINE
  5
A73
330
A02
100
AcDbEntity
  8
View
100
AcDbLine
 10
1826.5
 20
781.5
 30
0
 11
1845.5
 21
781.5
 31
0
  0
LINE
  5
A74
330
A02
100
AcDbEntity
  8
View
100
AcDbLine
 10
1688
 20
779.5
 30
0
 11
1688
 21
783
 31
0
  0
LINE
  5
A75
330
A02
100
AcDbEntity
  8
View
100
AcDbLine
 10
1688
 20
779.5
 30
0
 11
1786
 21
779.5
 31
0
  0
LINE
  5
A76
330
A02
100
AcDbEntity
  8
View
100
AcDbLine
 10
1688
 20
783
 30
0
 11
1786
 21
783
 31
0
  0
LINE
  5
A77
330
A02
100
AcDbEntity
  8
View
100
AcDbLine
 10
1786
 20
779.5
 30
0
 11
1786
 21
783
 31
0
  0
LINE
  5
A78
330
A02
100
AcDbEntity
  8
View
100
AcDbLine
 10
1727.5
 20
781
 30
0
 11
1727.5
 21
781.5
 31
0
  0
LINE
  5
A79
330
A02
100
AcDbEntity
  8
View
100
AcDbLine
 10
1727.5
 20
781
 30
0
 11
1746.5
 21
781
 31
0
  0
LINE
  5
A7A
330
A02
100
AcDbEntity
  8
View
100
AcDbLine
 10
1746.5
 20
781
 30
0
 11
1746.5
 21
781.5
 31
0
  0
LINE
  5
A7B
330
A02
100
AcDbEntity
  8
View
100
AcDbLine
 10
1727.5
 20
781.5
 30
0
 11
1746.5
 21
781.5
 31
0
  0
LINE
  5
A7C
330
A02
100
AcDbEntity
  8
View
100
AcDbLine
 10
1787
 20
775
 30
0
 11
1787
 21
776.5
 31
0
  0
LINE
  5
A7D
330
A02
100
AcDbEntity
  8
View
100
AcDbLine
 10
1787
 20
775
 30
0
 11
1885
 21
775
 31
0
  0
LINE
  5
A7E
330
A02
100
AcDbEntity
  8
View
100
AcDbLine
 10
1787
 20
776.5
 30
0
 11
1792
 21
776.5
 31
0
  0
LINE
  5
A7F
330
A02
100
AcDbEntity
  8
View
100
AcDbLine
 10
1885
 20
775
 30
0
 11
1885
 21
776.5
 31
0
  0
LINE
  5
A80
330
A02
100
AcDbEntity
  8
View
100
AcDbLine
 10
1792
 20
776.5
 30
0
 11
1792
 21
777
 31
0
  0
LINE
  5
A81
330
A02
100
AcDbEntity
  8
View
100
AcDbLine
 10
1880
 20
776.5
 30
0
 11
1885
 21
776.5
 31
0
  0
LINE
  5
A82
330
A02
100
AcDbEntity
  8
View
100
AcDbLine
 10
1787
 20
777
 30
0
 11
1792
 21
777
 31
0
  0
LINE
  5
A83
330
A02
100
AcDbEntity
  8
View
100
AcDbLine
 10
1880
 20
776.5
 30
0
 11
1880
 21
777
 31
0
  0
LINE
  5
A84
330
A02
100
AcDbEntity
  8
View
100
AcDbLine
 10
1787
 20
777
 30
0
 11
1787
 21
778.5
 31
0
  0
LINE
  5
A85
330
A02
100
AcDbEntity
  8
View
100
AcDbLine
 10
1880
 20
777
 30
0
 11
1885
 21
777
 31
0
  0
LINE
  5
A86
330
A02
100
AcDbEntity
  8
View
100
AcDbLine
 10
1787
 20
778.5
 30
0
 11
1885
 21
778.5
 31
0
  0
LINE
  5
A87
330
A02
100
AcDbEntity
  8
View
100
AcDbLine
 10
1885
 20
777
 30
0
 11
1885
 21
778.5
 31
0
  0
LINE
  5
A88
330
A02
100
AcDbEntity
  8
View
100
AcDbLine
 10
1826.5
 20
776.5
 30
0
 11
1826.5
 21
777
 31
0
  0
LINE
  5
A89
330
A02
100
AcDbEntity
  8
View
100
AcDbLine
 10
1826.5
 20
777
 30
0
 11
1845.5
 21
777
 31
0
  0
LINE
  5
A8A
330
A02
100
AcDbEntity
  8
View
100
AcDbLine
 10
1826.5
 20
776.5
 30
0
 11
1845.5
 21
776.5
 31
0
  0
LINE
  5
A8B
330
A02
100
AcDbEntity
  8
View
100
AcDbLine
 10
1845.5
 20
776.5
 30
0
 11
1845.5
 21
777
 31
0
  0
LINE
  5
A8C
330
A02
100
AcDbEntity
  8
View
100
AcDbLine
 10
1860.75
 20
776.5
 30
0
 11
1860.75
 21
777
 31
0
  0
LINE
  5
A8D
330
A02
100
AcDbEntity
  8
View
100
AcDbLine
 10
1860.75
 20
776.5
 30
0
 11
1864.75
 21
776.5
 31
0
  0
LINE
  5
A8E
330
A02
100
AcDbEntity
  8
View
100
AcDbLine
 10
1864.75
 20
776.5
 30
0
 11
1864.75
 21
777
 31
0
  0
LINE
  5
A8F
330
A02
100
AcDbEntity
  8
View
100
AcDbLine
 10
1860.75
 20
777
 30
0
 11
1864.75
 21
777
 31
0
  0
LINE
  5
A90
330
A02
100
AcDbEntity
  8
View
100
AcDbLine
 10
1688
 20
775
 30
0
 11
1688
 21
776.5
 31
0
  0
LINE
  5
A91
330
A02
100
AcDbEntity
  8
View
100
AcDbLine
 10
1688
 20
775
 30
0
 11
1786
 21
775
 31
0
  0
LINE
  5
A92
330
A02
100
AcDbEntity
  8
View
100
AcDbLine
 10
1688
 20
776.5
 30
0
 11
1693
 21
776.5
 31
0
  0
LINE
  5
A93
330
A02
100
AcDbEntity
  8
View
100
AcDbLine
 10
1786
 20
775
 30
0
 11
1786
 21
776.5
 31
0
  0
LINE
  5
A94
330
A02
100
AcDbEntity
  8
View
100
AcDbLine
 10
1693
 20
776.5
 30
0
 11
1693
 21
777
 31
0
  0
LINE
  5
A95
330
A02
100
AcDbEntity
  8
View
100
AcDbLine
 10
1781
 20
776.5
 30
0
 11
1786
 21
776.5
 31
0
  0
LINE
  5
A96
330
A02
100
AcDbEntity
  8
View
100
AcDbLine
 10
1688
 20
777
 30
0
 11
1693
 21
777
 31
0
  0
LINE
  5
A97
330
A02
100
AcDbEntity
  8
View
100
AcDbLine
 10
1781
 20
776.5
 30
0
 11
1781
 21
777
 31
0
  0
LINE
  5
A98
330
A02
100
AcDbEntity
  8
View
100
AcDbLine
 10
1688
 20
777
 30
0
 11
1688
 21
778.5
 31
0
  0
LINE
  5
A99
330
A02
100
AcDbEntity
  8
View
100
AcDbLine
 10
1781
 20
777
 30
0
 11
1786
 21
777
 31
0
  0
LINE
  5
A9A
330
A02
100
AcDbEntity
  8
View
100
AcDbLine
 10
1688
 20
778.5
 30
0
 11
1786
 21
778.5
 31
0
  0
LINE
  5
A9B
330
A02
100
AcDbEntity
  8
View
100
AcDbLine
 10
1786
 20
777
 30
0
 11
1786
 21
778.5
 31
0
  0
LINE
  5
A9C
330
A02
100
AcDbEntity
  8
View
100
AcDbLine
 10
1727.5
 20
776.5
 30
0
 11
1727.5
 21
777
 31
0
  0
LINE
  5
A9D
330
A02
100
AcDbEntity
  8
View
100
AcDbLine
 10
1727.5
 20
777
 30
0
 11
1746.5
 21
777
 31
0
  0
LINE
  5
A9E
330
A02
100
AcDbEntity
  8
View
100
AcDbLine
 10
1727.5
 20
776.5
 30
0
 11
1746.5
 21
776.5
 31
0
  0
LINE
  5
A9F
330
A02
100
AcDbEntity
  8
View
100
AcDbLine
 10
1746.5
 20
776.5
 30
0
 11
1746.5
 21
777
 31
0
  0
LINE
  5
AA0
330
A02
100
AcDbEntity
  8
View
100
AcDbLine
 10
1761.75
 20
776.5
 30
0
 11
1761.75
 21
777
 31
0
  0
LINE
  5
AA1
330
A02
100
AcDbEntity
  8
View
100
AcDbLine
 10
1761.75
 20
776.5
 30
0
 11
1765.75
 21
776.5
 31
0
  0
LINE
  5
AA2
330
A02
100
AcDbEntity
  8
View
100
AcDbLine
 10
1765.75
 20
776.5
 30
0
 11
1765.75
 21
777
 31
0
  0
LINE
  5
AA3
330
A02
100
AcDbEntity
  8
View
100
AcDbLine
 10
1761.75
 20
777
 30
0
 11
1765.75
 21
777
 31
0
  0
SPLINE
  5
AA4
330
A02
100
AcDbEntity
  8
View
100
AcDbSpline
210
0
220
0
230
1
 70
8
 71
1
 72
4
 73
2
 74
0
 40
0
 40
0
 40
1.5
 40
1.5
 10
1579
 20
790.5
 30
0
 10
1579
 20
792
 30
0
  0
SPLINE
  5
AA5
330
A02
100
AcDbEntity
  8
View
100
AcDbSpline
210
0
220
0
230
1
 70
8
 71
1
 72
4
 73
2
 74
0
 40
0
 40
0
 40
1.5
 40
1.5
 10
1679
 20
790.5
 30
0
 10
1679
 20
792
 30
0
  0
SPLINE
  5
AA6
330
A02
100
AcDbEntity
  8
View
100
AcDbSpline
210
0
220
0
230
1
 70
8
 71
1
 72
4
 73
2
 74
0
 40
0
 40
0
 40
100
 40
100
 10
1579
 20
790.5
 30
0
 10
1679
 20
790.5
 30
0
  0
SPLINE
  5
AA7
330
A02
100
AcDbEntity
  8
View
100
AcDbSpline
210
0
220
0
230
1
 70
8
 71
1
 72
4
 73
2
 74
0
 40
0
 40
0
 40
100
 40
100
 10
1579
 20
792
 30
0
 10
1679
 20
792
 30
0
  0
SPLINE
  5
AA8
330
A02
100
AcDbEntity
  8
View
100
AcDbSpline
210
0
220
0
230
1
 70
8
 71
1
 72
4
 73
2
 74
0
 40
0
 40
0
 40
1.5
 40
1.5
 10
1579
 20
788
 30
0
 10
1579
 20
789.5
 30
0
  0
SPLINE
  5
AA9
330
A02
100
AcDbEntity
  8
View
100
AcDbSpline
210
0
220
0
230
1
 70
8
 71
1
 72
4
 73
2
 74
0
 40
0
 40
0
 40
100
 40
100
 10
1579
 20
788
 30
0
 10
1679
 20
788
 30
0
  0
SPLINE
  5
AAA
330
A02
100
AcDbEntity
  8
View
100
AcDbSpline
210
0
220
0
230
1
 70
8
 71
1
 72
4
 73
2
 74
0
 40
0
 40
0
 40
100
 40
100
 10
1579
 20
789.5
 30
0
 10
1679
 20
789.5
 30
0
  0
SPLINE
  5
AAB
330
A02
100
AcDbEntity
  8
View
100
AcDbSpline
210
0
220
0
230
1
 70
8
 71
1
 72
4
 73
2
 74
0
 40
0
 40
0
 40
1.5
 40
1.5
 10
1679
 20
788
 30
0
 10
1679
 20
789.5
 30
0
  0
SPLINE
  5
AAC
330
A02
100
AcDbEntity
  8
View
100
AcDbSpline
210
0
220
0
230
1
 70
8
 71
1
 72
4
 73
2
 74
0
 40
0
 40
0
 40
0.5
 40
0.5
 10
1579.5
 20
788.5
 30
0
 10
1579.5
 20
789
 30
0
  0
SPLINE
  5
AAD
330
A02
100
AcDbEntity
  8
View
100
AcDbSpline
210
0
220
0
230
1
 70
8
 71
1
 72
4
 73
2
 74
0
 40
0
 40
0
 40
4
 40
4
 10
1579.5
 20
788.5
 30
0
 10
1583.5
 20
788.5
 30
0
  0
SPLINE
  5
AAE
330
A02
100
AcDbEntity
  8
View
100
AcDbSpline
210
0
220
0
230
1
 70
8
 71
1
 72
4
 73
2
 74
0
 40
0
 40
0
 40
0.5
 40
0.5
 10
1583.5
 20
788.5
 30
0
 10
1583.5
 20
789
 30
0
  0
SPLINE
  5
AAF
330
A02
100
AcDbEntity
  8
View
100
AcDbSpline
210
0
220
0
230
1
 70
8
 71
1
 72
4
 73
2
 74
0
 40
0
 40
0
 40
4
 40
4
 10
1579.5
 20
789
 30
0
 10
1583.5
 20
789
 30
0
  0
SPLINE
  5
AB0
330
A02
100
AcDbEntity
  8
View
100
AcDbSpline
210
0
220
0
230
1
 70
8
 71
1
 72
4
 73
2
 74
0
 40
0
 40
0
 40
1.5
 40
1.5
 10
1581
 20
785.5
 30
0
 10
1581
 20
787
 30
0
  0
SPLINE
  5
AB1
330
A02
100
AcDbEntity
  8
View
100
AcDbSpline
210
0
220
0
230
1
 70
8
 71
1
 72
4
 73
2
 74
0
 40
0
 40
0
 40
98
 40
98
 10
1581
 20
785.5
 30
0
 10
1679
 20
785.5
 30
0
  0
SPLINE
  5
AB2
330
A02
100
AcDbEntity
  8
View
100
AcDbSpline
210
0
220
0
230
1
 70
8
 71
1
 72
4
 73
2
 74
0
 40
0
 40
0
 40
98
 40
98
 10
1581
 20
787
 30
0
 10
1679
 20
787
 30
0
  0
SPLINE
  5
AB3
330
A02
100
AcDbEntity
  8
View
100
AcDbSpline
210
0
220
0
230
1
 70
8
 71
1
 72
4
 73
2
 74
0
 40
0
 40
0
 40
1.5
 40
1.5
 10
1679
 20
785.5
 30
0
 10
1679
 20
787
 30
0
  0
SPLINE
  5
AB4
330
A02
100
AcDbEntity
  8
View
100
AcDbSpline
210
0
220
0
230
1
 70
8
 71
1
 72
4
 73
2
 74
0
 40
0
 40
0
 40
0.5
 40
0.5
 10
1620.5
 20
786
 30
0
 10
1620.5
 20
786.5
 30
0
  0
SPLINE
  5
AB5
330
A02
100
AcDbEntity
  8
View
100
AcDbSpline
210
0
220
0
230
1
 70
8
 71
1
 72
4
 73
2
 74
0
 40
0
 40
0
 40
19
 40
19
 10
1620.5
 20
786
 30
0
 10
1639.5
 20
786
 30
0
  0
SPLINE
  5
AB6
330
A02
100
AcDbEntity
  8
View
100
AcDbSpline
210
0
220
0
230
1
 70
8
 71
1
 72
4
 73
2
 74
0
 40
0
 40
0
 40
0.5
 40
0.5
 10
1639.5
 20
786
 30
0
 10
1639.5
 20
786.5
 30
0
  0
SPLINE
  5
AB7
330
A02
100
AcDbEntity
  8
View
100
AcDbSpline
210
0
220
0
230
1
 70
8
 71
1
 72
4
 73
2
 74
0
 40
0
 40
0
 40
19
 40
19
 10
1620.5
 20
786.5
 30
0
 10
1639.5
 20
786.5
 30
0
  0
SPLINE
  5
AB8
330
A02
100
AcDbEntity
  8
View
100
AcDbSpline
210
0
220
0
230
1
 70
8
 71
1
 72
4
 73
2
 74
0
 40
0
 40
0
 40
0.5
 40
0.5
 10
1581
 20
783
 30
0
 10
1581
 20
783.5
 30
0
  0
SPLINE
  5
AB9
330
A02
100
AcDbEntity
  8
View
100
AcDbSpline
210
0
220
0
230
1
 70
8
 71
1
 72
4
 73
2
 74
0
 40
0
 40
0
 40
98
 40
98
 10
1581
 20
783
 30
0
 10
1679
 20
783
 30
0
  0
SPLINE
  5
ABA
330
A02
100
AcDbEntity
  8
View
100
AcDbSpline
210
0
220
0
230
1
 70
8
 71
1
 72
4
 73
2
 74
0
 40
0
 40
0
 40
5
 40
5
 10
1581
 20
783.5
 30
0
 10
1586
 20
783.5
 30
0
  0
SPLINE
  5
ABB
330
A02
100
AcDbEntity
  8
View
100
AcDbSpline
210
0
220
0
230
1
 70
8
 71
1
 72
4
 73
2
 74
0
 40
0
 40
0
 40
0.5
 40
0.5
 10
1679
 20
783
 30
0
 10
1679
 20
783.5
 30
0
  0
SPLINE
  5
ABC
330
A02
100
AcDbEntity
  8
View
100
AcDbSpline
210
0
220
0
230
1
 70
8
 71
1
 72
4
 73
2
 74
0
 40
0
 40
0
 40
0.5
 40
0.5
 10
1586
 20
783.5
 30
0
 10
1586
 20
784
 30
0
  0
SPLINE
  5
ABD
330
A02
100
AcDbEntity
  8
View
100
AcDbSpline
210
0
220
0
230
1
 70
8
 71
1
 72
4
 73
2
 74
0
 40
0
 40
0
 40
5
 40
5
 10
1674
 20
783.5
 30
0
 10
1679
 20
783.5
 30
0
  0
SPLINE
  5
ABE
330
A02
100
AcDbEntity
  8
View
100
AcDbSpline
210
0
220
0
230
1
 70
8
 71
1
 72
4
 73
2
 74
0
 40
0
 40
0
 40
5
 40
5
 10
1581
 20
784
 30
0
 10
1586
 20
784
 30
0
  0
SPLINE
  5
ABF
330
A02
100
AcDbEntity
  8
View
100
AcDbSpline
210
0
220
0
230
1
 70
8
 71
1
 72
4
 73
2
 74
0
 40
0
 40
0
 40
0.5
 40
0.5
 10
1674
 20
783.5
 30
0
 10
1674
 20
784
 30
0
  0
SPLINE
  5
AC0
330
A02
100
AcDbEntity
  8
View
100
AcDbSpline
210
0
220
0
230
1
 70
8
 71
1
 72
4
 73
2
 74
0
 40
1
 40
1
 40
1.5
 40
1.5
 10
1581
 20
784
 30
0
 10
1581
 20
784.5
 30
0
  0
SPLINE
  5
AC1
330
A02
100
AcDbEntity
  8
View
100
AcDbSpline
210
0
220
0
230
1
 70
8
 71
1
 72
4
 73
2
 74
0
 40
0
 40
0
 40
5
 40
5
 10
1674
 20
784
 30
0
 10
1679
 20
784
 30
0
  0
SPLINE
  5
AC2
330
A02
100
AcDbEntity
  8
View
100
AcDbSpline
210
0
220
0
230
1
 70
8
 71
1
 72
4
 73
2
 74
0
 40
0
 40
0
 40
98
 40
98
 10
1581
 20
784.5
 30
0
 10
1679
 20
784.5
 30
0
  0
SPLINE
  5
AC3
330
A02
100
AcDbEntity
  8
View
100
AcDbSpline
210
0
220
0
230
1
 70
8
 71
1
 72
4
 73
2
 74
0
 40
1
 40
1
 40
1.5
 40
1.5
 10
1679
 20
784
 30
0
 10
1679
 20
784.5
 30
0
  0
SPLINE
  5
AC4
330
A02
100
AcDbEntity
  8
View
100
AcDbSpline
210
0
220
0
230
1
 70
8
 71
1
 72
4
 73
2
 74
0
 40
0
 40
0
 40
0.5
 40
0.5
 10
1620.5
 20
783.5
 30
0
 10
1620.5
 20
784
 30
0
  0
SPLINE
  5
AC5
330
A02
100
AcDbEntity
  8
View
100
AcDbSpline
210
0
220
0
230
1
 70
8
 71
1
 72
4
 73
2
 74
0
 40
0
 40
0
 40
19
 40
19
 10
1620.5
 20
784
 30
0
 10
1639.5
 20
784
 30
0
  0
SPLINE
  5
AC6
330
A02
100
AcDbEntity
  8
View
100
AcDbSpline
210
0
220
0
230
1
 70
8
 71
1
 72
4
 73
2
 74
0
 40
0
 40
0
 40
19
 40
19
 10
1620.5
 20
783.5
 30
0
 10
1639.5
 20
783.5
 30
0
  0
SPLINE
  5
AC7
330
A02
100
AcDbEntity
  8
View
100
AcDbSpline
210
0
220
0
230
1
 70
8
 71
1
 72
4
 73
2
 74
0
 40
0
 40
0
 40
0.5
 40
0.5
 10
1639.5
 20
783.5
 30
0
 10
1639.5
 20
784
 30
0
  0
SPLINE
  5
AC8
330
A02
100
AcDbEntity
  8
View
100
AcDbSpline
210
0
220
0
230
1
 70
8
 71
1
 72
4
 73
2
 74
0
 40
0
 40
0
 40
0.5
 40
0.5
 10
1654.75
 20
783.5
 30
0
 10
1654.75
 20
784
 30
0
  0
SPLINE
  5
AC9
330
A02
100
AcDbEntity
  8
View
100
AcDbSpline
210
0
220
0
230
1
 70
8
 71
1
 72
4
 73
2
 74
0
 40
0
 40
0
 40
4
 40
4
 10
1654.75
 20
783.5
 30
0
 10
1658.75
 20
783.5
 30
0
  0
SPLINE
  5
ACA
330
A02
100
AcDbEntity
  8
View
100
AcDbSpline
210
0
220
0
230
1
 70
8
 71
1
 72
4
 73
2
 74
0
 40
0
 40
0
 40
0.5
 40
0.5
 10
1658.75
 20
783.5
 30
0
 10
1658.75
 20
784
 30
0
  0
SPLINE
  5
ACB
330
A02
100
AcDbEntity
  8
View
100
AcDbSpline
210
0
220
0
230
1
 70
8
 71
1
 72
4
 73
2
 74
0
 40
0
 40
0
 40
4
 40
4
 10
1654.75
 20
784
 30
0
 10
1658.75
 20
784
 30
0
  0
ENDSEC
  0
SECTION
  2
OBJECTS
  0
DICTIONARY
  5
F000
330
0
100
AcDbDictionary
  3
ACAD_GROUP
350
F001
  0
DICTIONARY
  5
F001
330
F000
100
AcDbDictionary
  0
ENDSEC
  0
EOF