<?xml version="1.0" encoding="UTF-8" standalone="no"?>
<svg
   width="210mm"
   height="297mm"
   viewBox="0 0 210 297"
   version="1.1"
   xmlns="http://www.w3.org/2000/svg"
   xmlns:freecad="http://www.freecadweb.org/wiki/index.php?title=Svg_Namespace"
   xmlns:rdf="http://www.w3.org/1999/02/22-rdf-syntax-ns#"
   xmlns:cc="http://creativecommons.org/ns#"
   xmlns:dc="http://purl.org/dc/elements/1.1/">
  <title>Шаблон основной надписи А4 ГОСТ 2.104-2006</title>
  <rect
     x="0"
     y="0"
     width="210"
     height="297"
     fill="white" />
  <g font-family="GOST type A">
    <g
       fill="none"
       stroke="black"
       stroke-width="0.5"
       stroke-linecap="round"
       stroke-linejoin="round">
      <rect x="20" y="5" width="185" height="287" />
      <path d="m 90 5 v 14 h -70" />
    </g>
    <text
       freecad:editable="Обозначение"
       x="-55"
       y="-7.5"
       transform="scale(-1)"
       font-size="13.33"
       text-anchor="middle"><tspan>РИК-35.000000.000СБ</tspan></text>
    <g transform="translate(210, 297)">
      <g
         fill="none"
         stroke="black"
         stroke-linecap="round"
         stroke-linejoin="round">
        <g stroke-width="0.5">
          <path d="m -125 -20 h 120" />
          <path d="m -125 -45 h 120" />
          <path d="m -190 -60 h 185" />
          <path d="m -55 -25 h 50" />
          <path d="m -55 -40 h 50" />
          <path d="m -55 -45 v 40" />
          <path d="m -125 -60 v 55" />
          <path d="m -135 -60 v 55" />
          <path d="m -150 -60 v 55" />
          <path d="m -173 -60 v 55" />
          <path d="m -183 -60 v 25" />
          <path d="m -190 -40 h 65" />
          <path d="m -190 -35 h 65" />
          <path d="m -23 -45 v 20" />
          <path d="m -40 -45 v 20" />
          <path d="m -35 -25 v 5" />
        </g>
        <g stroke-width="0.25">
          <path d="m -190 -55 h 65" />
          <path d="m -190 -50 h 65" />
          <path d="m -190 -45 h 65" />
          <path d="m -190 -30 h 65" />
          <path d="m -190 -25 h 65" />
          <path d="m -190 -20 h 65" />
          <path d="m -190 -15 h 65" />
          <path d="m -190 -10 h 65" />
          <path d="m -45 -40 v 15" />
          <path d="m -50 -40 v 15" />
        </g>
      </g>
      <g>
        <g font-size="4">
          <g font-style="italic">
            <g text-anchor="middle">
              <text x="-186.5" y="-36">Изм.</text>
              <text x="-178" y="-36">Лист</text>
              <text x="-161.5" y="-36">№ докум.</text>
              <text x="-142.5" y="-36">Подп.</text>
              <text x="-130" y="-36">Дата</text>
              <text x="-47.5" y="-41">Литера</text>
              <text x="-31.5" y="-41">Масса</text>
              <text x="-14" y="-41">Масштаб</text>
            </g>
            <g text-anchor="middle">
              <text freecad:editable="Литера 1" x="-52.5" y="-31"><tspan></tspan></text>
              <text freecad:editable="Литера 2" x="-47.5" y="-31"><tspan></tspan></text>
              <text freecad:editable="Литера 3" x="-42.5" y="-31"><tspan></tspan></text>
            </g>
            <text x="-189" y="-31">Разраб.</text>
            <text x="-189" y="-26">Пров.</text>
            <text x="-189" y="-21">Т.контр.</text>
            <text x="-189" y="-11">Н.контр.</text>
            <text x="-189" y="-6">Утв.</text>
            <text x="-54" y="-21">Лист</text>
            <text x="-34" y="-21">Листов</text>
          </g>
          <text
             freecad:editable="Лист"
             x="-36"
             y="-21"
             text-anchor="end"><tspan></tspan></text>
          <text
             freecad:editable="Листов"
             x="-6"
             y="-21"
             text-anchor="end"><tspan>1</tspan></text>
          <text freecad:editable="Разработал" x="-172" y="-31"><tspan>Иванов И. И.</tspan></text>
          <text freecad:editable="Проверил" x="-172" y="-26"><tspan>Иванов И. И.</tspan></text>
          <text freecad:editable="Утвердил" x="-172" y="-6"><tspan>Иванов И. И.</tspan></text>
          <text freecad:editable="Дата разработки" x="-134" y="-31"><tspan>01.01</tspan></text>
          <text freecad:editable="Дата проверки" x="-134" y="-26"><tspan>01.01</tspan></text>
          <text freecad:editable="Дата утверждения" x="-134" y="-6"><tspan>01.01</tspan></text>
        </g>
        <g
           font-size="6.66"
           text-anchor="middle">
          <text freecad:editable="Наименование 1" x="-90" y="-30"><tspan>Деталь</tspan></text>
          <text freecad:editable="Наименование 2" x="-90" y="-32.5"><tspan></tspan></text>
          <text freecad:editable="Наименование 3" x="-90" y="-27.5"><tspan></tspan></text>
          <text freecad:editable="Наименование 4" x="-90" y="-35"><tspan></tspan></text>
          <text freecad:editable="Наименование 5" x="-90" y="-25"><tspan></tspan></text>
          <text freecad:editable="Материал" x="-90" y="-10"><tspan></tspan></text>
          <text freecad:editable="Масса" x="-31.5" y="-30"><tspan>0.000</tspan></text>
          <text freecad:editable="Масштаб" x="-14" y="-30"><tspan>1:1</tspan></text>
          <text freecad:editable="Компания" x="-30" y="-10"><tspan>ООО "Рога и копыта"</tspan></text>
        </g>
        <text
           freecad:editable="Обозначение"
           x="-65"
           y="-47.5"
           font-size="13.33"
           text-anchor="middle"><tspan>РИК-35.000000.000СБ</tspan></text>
      </g>
    </g>
  </g>
  <metadata>
    <rdf:RDF>
      <cc:Work>
        <dc:title>Шаблон основной надписи А4 ГОСТ 2.104-2006</dc:title>
        <dc:date>2024-04-01</dc:date>
        <dc:creator><cc:Agent><dc:title>Серый MLGamer</dc:title></cc:Agent></dc:creator>
        <dc:rights><cc:Agent><dc:title>2024 Серый MLGamer &lt;Seriy-MLGamer@yandex.ru&gt;</dc:title></cc:Agent></dc:rights>
        <dc:language>Русский</dc:language>
        <cc:license rdf:resource="http://creativecommons.org/licenses/by/4.0/" />
      </cc:Work>
      <cc:License rdf:about="http://creativecommons.org/licenses/by/4.0/">
        <cc:permits rdf:resource="http://creativecommons.org/ns#Reproduction" />
        <cc:permits rdf:resource="http://creativecommons.org/ns#Distribution" />
        <cc:requires rdf:resource="http://creativecommons.org/ns#Notice" />
        <cc:requires rdf:resource="http://creativecommons.org/ns#Attribution" />
        <cc:permits rdf:resource="http://creativecommons.org/ns#DerivativeWorks" />
      </cc:License>
    </rdf:RDF>
  </metadata>
</svg>